<svg width="149" height="30" viewBox="0 0 149 30" fill="none" xmlns="http://www.w3.org/2000/svg">
<g clip-path="url(#clip0_285_43)">
<path d="M3.92211 3.87629H7.16032C10.1199 3.87629 11.4241 4.81049 11.4241 6.70816C11.4241 8.35727 10.1199 9.47701 7.50202 9.47701H3.92211V3.87629ZM0 22.5354H7.9366C12.1075 22.5354 16.2785 21.0471 16.2785 16.256C16.2785 13.4242 14.2908 11.2502 11.521 10.9356V10.8701C13.7872 10.1919 15.3502 8.54331 15.3502 6.05476C15.3502 2.04213 11.9218 0.519531 8.5907 0.519531H0V22.5354ZM3.92211 12.8338H7.68777C10.8624 12.8338 12.3618 13.6434 12.3618 15.9464C12.3618 18.8344 9.55372 19.1787 7.53133 19.1787H3.92211V12.8338Z" fill="white"/>
<path d="M22.576 0V22.5353H18.8511V0H22.576Z" fill="white"/>
<path d="M28.8116 15.0731C28.8116 12.7408 30.4624 10.5971 33.2025 10.5971C35.9426 10.5971 37.5885 12.7413 37.5885 15.0731C37.5885 17.4049 35.9426 19.5496 33.2025 19.5496C30.462 19.5496 28.8116 17.4054 28.8116 15.0731ZM25.0752 15.0731C25.0752 19.7689 28.6844 22.9064 33.2025 22.9064C37.7152 22.9064 41.3298 19.7694 41.3298 15.0731C41.3298 10.3768 37.7156 7.23535 33.2025 7.23535C28.6844 7.23486 25.0752 10.3773 25.0752 15.0731Z" fill="white"/>
<path d="M46.751 15.0731C46.751 12.7408 48.4019 10.5971 51.142 10.5971C53.882 10.5971 55.528 12.7413 55.528 15.0731C55.528 17.4049 53.882 19.5496 51.142 19.5496C48.4019 19.5496 46.751 17.4054 46.751 15.0731ZM43.0146 15.0731C43.0146 19.7689 46.6244 22.9064 51.142 22.9064C55.6546 22.9064 59.2693 19.7694 59.2693 15.0731C59.2693 10.3768 55.6551 7.23535 51.142 7.23535C46.6239 7.23486 43.0146 10.3773 43.0146 15.0731Z" fill="white"/>
<path d="M61.5449 7.60847H65.0955V9.94322H65.1541C65.8087 8.54317 67.2396 7.23291 69.7303 7.23291C72.0358 7.23291 73.6281 8.13288 74.4044 10.0018C75.4936 8.10857 77.0809 7.23291 79.3178 7.23291C83.303 7.23291 84.7056 10.0673 84.7056 13.6438V22.5358H80.9692V14.0779C80.9692 12.214 80.4125 10.5966 78.1999 10.5966C75.8656 10.5966 74.991 12.5236 74.991 14.4485V22.5353H71.2596V13.6433C71.2596 11.8037 70.5121 10.5966 68.7052 10.5966C66.2483 10.5966 65.2813 12.3946 65.2813 14.3875V22.5353H61.5449V7.60847Z" fill="white"/>
<path d="M100.125 15.0732C100.125 17.4079 98.4791 19.5497 95.7341 19.5497C92.9935 19.5497 91.3431 17.4079 91.3431 15.0732C91.3431 12.7409 92.9935 10.5917 95.7341 10.5917C98.4791 10.5917 100.125 12.7409 100.125 15.0732ZM87.7339 22.5353H91.2845V20.2978H91.3431C92.4367 22.0958 94.3956 22.906 96.4855 22.906C101.087 22.906 103.861 19.4857 103.861 15.0727C103.861 10.6572 100.901 7.23495 96.6375 7.23495C93.8383 7.23495 92.3394 8.53776 91.5626 9.50867H91.4698V0H87.7334L87.7339 22.5353Z" fill="white"/>
<path d="M109.287 13.5803C109.566 11.4311 110.938 10.0335 113.146 10.0335C115.48 10.0335 116.911 11.4023 116.946 13.5803H109.287ZM120.682 16.3784V15.3539C120.682 10.158 117.85 7.23535 113.678 7.23535C109.156 7.23535 105.551 10.3773 105.551 15.0731C105.551 19.7689 109.156 22.9064 113.678 22.9064C116.037 22.9064 118.254 22.0674 119.993 19.9252L117.317 17.9079C116.384 19.0525 115.168 19.9252 113.302 19.9252C111.217 19.9252 109.531 18.5861 109.287 16.3784H120.682Z" fill="white"/>
<path d="M123.114 7.60847H126.851V9.9725H126.914C127.725 8.26236 129.371 7.23291 131.334 7.23291C131.803 7.23291 132.237 7.32817 132.672 7.45468V11.0605C132.052 10.9067 131.456 10.7822 130.865 10.7822C127.348 10.7822 126.85 13.7386 126.85 14.5487V22.5358H123.114L123.114 7.60847Z" fill="white"/>
<path d="M141.03 10.5966C143.735 10.5966 145.449 12.3946 145.449 14.9823C145.449 17.4659 143.769 19.3636 141 19.3636C138.48 19.3636 136.609 17.4049 136.609 15.0409C136.609 12.3946 138.411 10.5966 141.03 10.5966ZM145.449 7.60847V9.84797H145.391C144.297 8.04258 142.334 7.23291 140.248 7.23291C135.643 7.23291 132.873 10.6552 132.873 15.0731C132.873 19.2981 135.833 22.7208 140.312 22.7208C142.182 22.7208 144.111 22.0084 145.206 20.5473H145.259V21.6378C145.259 24.5892 144.146 26.6437 140.532 26.6437C138.446 26.6437 136.888 25.8628 135.393 24.487L133.156 27.5407C135.266 29.414 137.791 29.9999 140.565 29.9999C146.388 29.9999 149 26.5752 149 21.1982V7.60847H145.449Z" fill="white"/>
</g>
<defs>
<clipPath id="clip0_285_43">
<rect width="149" height="30" fill="white"/>
</clipPath>
</defs>
</svg>
