<svg width="342" height="30" viewBox="0 0 342 30" fill="none" xmlns="http://www.w3.org/2000/svg">
<path fill-rule="evenodd" clip-rule="evenodd" d="M0 0.617397H12.302C19.1445 0.617397 22.7223 4.14681 22.7223 8.48109C22.7223 11.4731 21.0311 13.5052 18.686 14.5801V14.6576C21.6851 15.7324 23.3763 18.1095 23.3763 21.139C23.3763 25.4733 20.0314 29.2701 12.8031 29.2701H0V0.617397ZM11.9186 11.9705C13.9556 11.9705 14.8801 10.9357 14.8801 9.78337C14.8801 8.63106 13.9581 7.55874 11.9186 7.55874H8.30572V11.9705H11.9186ZM12.0339 22.3263C14.1861 22.3263 15.2259 21.2915 15.2259 19.9492C15.2259 18.6069 14.1485 17.5721 12.074 17.5721H8.30572V22.3288H12.0339V22.3263ZM25.1426 17.6096V0.617397H33.5235V17.5321C33.5235 20.7165 35.0995 22.4038 37.7904 22.4038C40.4813 22.4038 42.1725 20.7165 42.1725 17.4946V0.617397H50.5935V17.6096C50.5935 24.8209 45.7503 30 37.7904 30C29.8304 30 25.1401 24.8209 25.1401 17.6096H25.1426ZM71.9328 1.99717V9.36094C70.1263 8.09615 67.0495 7.2138 64.5516 7.2138C62.2841 7.2138 61.1291 7.94368 61.1291 8.90102C61.1291 9.85836 62.3968 10.3583 64.6668 11.1631C68.5128 12.5054 73.7392 14.3076 73.7392 20.4066C73.7392 25.8532 69.6252 29.88 62.3968 29.88C58.6687 29.88 55.2462 28.8052 53.1315 27.3879V19.6392C55.2086 21.3264 58.3605 22.6687 61.3971 22.6687C63.9728 22.6687 65.1654 21.7089 65.1654 20.6366C65.1654 19.2568 63.2036 18.6419 60.8585 17.797C57.7817 16.6847 52.901 14.6901 52.901 9.12848C52.901 4.10431 56.8622 0 63.9352 0C67.0495 0 69.8557 0.804866 71.9328 1.99467V1.99717ZM75.8914 0.617397H84.2723V29.2701H75.8914V0.617397ZM114.07 29.2701H106.073L95.7299 13.8902H95.6924V29.2701H87.7349V0.617397H95.7324L106.075 15.7299H106.113V0.617397H114.07V29.2701ZM117.53 0.617397H137.369V8.05866H125.911V11.5106H136.214V18.262H125.911V21.8289H137.369V29.2701H117.53V0.617397ZM158.4 1.99717V9.36094C156.593 8.09615 153.517 7.2138 151.019 7.2138C148.751 7.2138 147.596 7.94368 147.596 8.90102C147.596 9.85836 148.864 10.3583 151.134 11.1631C154.98 12.5054 160.206 14.3076 160.206 20.4066C160.206 25.8532 156.092 29.88 148.864 29.88C145.136 29.88 141.713 28.8052 139.599 27.3879V19.6392C141.676 21.3264 144.828 22.6687 147.864 22.6687C150.44 22.6687 151.633 21.7089 151.633 20.6366C151.633 19.2568 149.671 18.6419 147.326 17.797C144.249 16.6847 139.368 14.6901 139.368 9.12848C139.368 4.10431 143.329 0 150.402 0C153.517 0 156.323 0.804866 158.4 1.99467V1.99717ZM180.584 1.99717V9.36094C178.777 8.09615 175.7 7.2138 173.202 7.2138C170.935 7.2138 169.78 7.94368 169.78 8.90102C169.78 9.85836 171.048 10.3583 173.318 11.1631C177.164 12.5054 182.39 14.3076 182.39 20.4066C182.39 25.8532 178.276 29.88 171.048 29.88C167.319 29.88 163.897 28.8052 161.782 27.3879V19.6392C163.859 21.3264 167.011 22.6687 170.048 22.6687C172.624 22.6687 173.816 21.7089 173.816 20.6366C173.816 19.2568 171.854 18.6419 169.509 17.797C166.432 16.6847 161.552 14.6901 161.552 9.12848C161.552 4.10431 165.513 0 172.586 0C175.7 0 178.506 0.804866 180.584 1.99467V1.99717ZM192.101 29.3251H200.482V0.674888H192.101V29.3276V29.3251ZM230.275 0.674888H222.318V15.7874H222.28L211.937 0.674888H203.94V29.3276H211.897V13.9477H211.935L222.277 29.3276H230.275V0.674888ZM243.765 0.05999C236.689 0.05999 232.73 4.16431 232.73 9.18847C232.73 14.75 237.614 16.7447 240.688 17.857C243.033 18.7019 244.995 19.3143 244.995 20.6966C244.995 21.7714 243.802 22.7287 241.227 22.7287C238.19 22.7287 235.035 21.3864 232.961 19.6992V27.4479C235.076 28.8677 238.498 29.94 242.226 29.94C249.455 29.94 253.569 25.9132 253.569 20.4666C253.569 14.3676 248.34 12.5654 244.496 11.2231C242.229 10.4183 240.958 9.95834 240.958 8.96101C240.958 7.96367 242.111 7.27379 244.381 7.27379C246.879 7.27379 249.956 8.15614 251.762 9.42093V2.05466C249.685 0.864856 246.879 0.05999 243.765 0.05999ZM255.525 29.3251H263.906V0.674888H255.525V29.3276V29.3251ZM275.747 21.7689H277.363C281.708 21.7689 284.514 19.3143 284.514 15.0175C284.514 10.7207 281.708 8.22863 277.363 8.22863H275.747V21.7689ZM292.972 15.0175C292.972 23.6486 286.436 29.3251 277.055 29.3251H267.366V0.674888H277.055C286.436 0.674888 292.972 6.38894 292.972 15.02V15.0175ZM295.245 29.3251H315.083V21.8839H303.626V18.3169H313.928V11.5656H303.626V8.11365H315.083V0.674888H295.245V29.3276V29.3251ZM328.275 14.2126C330.39 14.2126 332.043 13.2153 332.043 11.2206C332.043 9.22596 330.39 8.22863 328.237 8.22863H326.468V14.2126H328.275ZM342 29.3251H332.118L326.659 20.4641H326.466V29.3251H318.085V0.674888H328.312C335.503 0.674888 340.499 3.85936 340.499 10.6482C340.499 13.3328 339.307 17.2446 334.539 19.2393L341.997 29.3276L342 29.3251Z" fill="white"/>
</svg>
