<svg width="1514" height="1061" viewBox="0 0 1514 1061" fill="none" xmlns="http://www.w3.org/2000/svg">
<g opacity="0.5">
<path d="M641.504 336.041C641.307 330.489 642.804 325.086 642.971 319.565C643.334 307.103 641.095 294.926 637.708 283.076C634.607 272.242 631.28 261.347 626.214 251.184C620.104 238.932 609.895 232.44 596.148 230.634C588.722 229.664 581.311 229.455 574.007 230.186C563.934 231.186 554.239 234.126 544.938 238.245C533.958 243.125 523.977 249.692 513.708 255.766C504.694 261.108 495.726 266.63 485.442 269.481C483.627 269.988 481.842 271.092 480.375 272.316C471.331 279.897 460.639 283.211 449.145 285.3C435.987 287.703 423.343 292.001 411.365 298.045C398.707 304.432 387.394 312.67 377.715 322.863C372.119 328.758 365.918 333.459 358.372 336.354C352.806 338.488 347.029 339.742 340.964 339.652C330.922 339.518 320.88 339.652 310.838 339.607C299.147 339.562 287.577 338.234 275.977 336.906C263.303 335.458 251.855 340.249 246.546 354.277C243.325 362.769 241.919 371.664 240.134 380.454C238.591 388.035 237.26 395.691 236.549 403.376C235.99 409.45 235.612 415.569 234.886 421.628C233.721 431.254 231.589 440.745 228.383 449.908C223.846 462.862 217.13 474.682 208.933 485.815C198.982 499.351 201.598 514.23 214.953 525.214C222.545 531.452 230.984 536.69 237.88 543.764C244.172 550.226 247.832 557.837 249.601 566.672C251.658 576.984 255.273 586.908 258.948 596.773C261.761 604.31 265.95 611.264 268.415 618.979C271.44 628.471 270.699 637.35 264.71 645.484C259.069 653.14 256.074 662.005 252.399 670.571C250.327 675.406 248.316 680.182 247.953 685.614C247.333 695.046 250.917 703.149 255.348 711.014C257.329 714.536 260.142 717.596 262.139 721.103C267.553 730.549 271.47 740.638 274.147 751.174C276.643 760.994 277.293 771.201 280.363 780.887C284.023 792.483 288.757 803.69 293.445 814.898C297.514 824.628 301.929 834.209 306.814 843.582C314.845 858.968 327.08 869.325 344.246 873.16C351.188 874.713 358.432 874.384 365.646 873.429C372.497 872.519 378.895 871.116 384.521 866.878C394.835 859.117 398.888 849.148 396.922 836.389C394.865 823.002 390.192 810.332 386.532 797.393C381.148 778.425 375.537 759.516 370.743 740.399C365.48 719.431 360.353 698.448 351.868 678.421C346.635 666.064 339.966 654.528 332.631 643.32C326.959 634.649 324.646 624.83 324.388 614.681C324.237 609.07 325.311 603.399 326.46 597.862C328.063 590.147 327.443 582.61 324.6 575.298C320.38 564.418 319.019 553.091 320.017 541.63C321.076 529.542 324.827 518.006 329.712 506.887C332.48 500.619 335.066 494.232 339.134 488.621C343.883 482.054 351.778 480.338 359.476 483.935C364.95 486.486 369.639 490.337 375.068 492.919C387.409 498.784 400.325 500.724 413.906 498.679C426.791 496.754 438.558 499.769 449.901 506.067C461.425 512.469 472.239 520.08 484.307 525.557C492.822 529.422 501.548 532.303 510.804 533.825C516.491 534.765 522.147 535.436 527.879 535.138C534.564 534.81 541.233 535.466 547.827 536.034C562.225 537.287 576.26 540.227 589.629 546.166C602.167 551.748 615.521 555.151 628.755 558.926C643.334 563.075 657.777 567.776 671.993 573.089C679.827 576.029 687.904 576.342 696.312 575.432C707.035 574.283 717.35 571.477 727.891 569.627C737.343 567.97 746.932 567.149 756.551 568.179C760.18 568.567 763.749 569.418 767.44 569.612C777.376 570.119 786.813 568.06 796.129 564.926C804.946 561.956 814.066 560.434 823.337 561.762C833.077 563.15 841.788 567.209 847.928 574.999C852.284 580.521 851.679 590.714 846.9 596.743C842.166 602.713 835.376 604.832 828.086 606.16C819.541 607.712 811.329 605.891 803.026 604.653C795.086 603.459 786.526 608.637 783.108 617.218C779.69 625.815 777.92 634.918 775.092 643.708C772.824 650.722 771.069 657.916 768.453 664.796C765.383 672.884 759.499 679.077 752.542 684.122C745.858 688.957 739.703 694.374 733.774 700C723.036 710.163 712.465 720.536 702.498 731.46C696.963 737.534 692.153 744.145 690.202 752.233C688.13 760.755 688.917 769.082 692.259 777.32C695.481 785.23 699.14 792.632 706.475 797.721C718.635 806.183 734.606 805.675 745.677 795.542C754.842 787.14 762.963 777.873 770.086 767.68C775.803 759.516 784.197 755.651 794.315 756.606C799.532 757.098 804.644 758.651 809.938 759.024C814.55 759.352 819.087 759.367 823.745 758.845C828.63 758.307 833.455 757.546 837.841 755.696C852.874 749.323 862.704 738.086 868.043 722.864C870.07 717.088 871.718 711.208 874.425 705.597C879.401 695.314 888.052 694.001 896.657 695.075C903.07 695.866 909.376 697.702 915.592 699.821C926.693 703.612 937.159 700.463 946.702 694.807C955.05 689.867 963.444 685.136 972.533 681.659C983.77 677.346 995.476 675.764 1007.36 677.137C1017.41 678.301 1026.68 682.077 1035.36 687.345C1044.07 692.628 1053.91 693.27 1062.61 685.689C1072.27 677.272 1083.65 671.645 1095.93 667.661C1110.51 662.93 1124.94 657.781 1139.53 653.095C1144.07 651.648 1148.76 652.856 1153.31 654.065C1163.56 656.811 1174.01 658.841 1184.14 662.005C1194.47 665.228 1198.94 671.362 1199.03 682.032C1199.09 689.434 1199.44 696.867 1198.94 704.239C1198.27 713.939 1194.79 722.804 1188.47 730.355C1185.26 734.206 1180.47 734.34 1176.19 733.459C1169.88 732.161 1163.94 733.415 1158.04 734.773C1150.45 736.519 1143.11 739.444 1135.49 741.026C1120.82 744.07 1106.73 742.503 1093.74 734.37C1090.6 732.4 1088.31 729.833 1086.54 726.788C1082.71 720.177 1077.04 715.282 1070.84 711.118C1062.56 705.567 1054.84 707.328 1046.61 713.611C1040.92 717.954 1040.15 723.834 1041.27 730.773C1042.27 737.011 1044.73 742.921 1044.83 749.368C1044.95 757.352 1042.51 764.65 1039.7 771.948C1035.78 782.081 1033.65 792.662 1033.6 803.452C1033.53 821.062 1040.95 834.344 1057.39 842.612C1067.1 847.507 1077.13 851.223 1087.59 853.909C1094.34 855.64 1101.04 854.55 1107.53 852.476C1113.7 850.506 1120.1 849.984 1126.42 848.954C1132.66 847.939 1138.77 846.417 1144.93 845.029C1161.55 841.298 1177.35 842.582 1191.37 853.252C1194.78 855.834 1197.83 858.834 1200.43 862.206C1205.68 868.982 1211.32 875.444 1219.37 878.936C1226.72 882.13 1234.49 882.562 1242.57 881.279C1260.34 878.428 1277.52 873.011 1295.17 869.638C1301.91 868.355 1308.43 866.116 1313.36 860.789C1318.1 855.67 1320.12 849.476 1320.92 842.85C1322.44 830.479 1325.58 818.793 1331.71 807.675C1340.42 791.871 1349.54 776.186 1355.41 759.024C1357.86 751.86 1359.34 744.413 1358.6 736.832C1358.22 732.997 1358.07 729.191 1357.98 725.356C1357.51 706.806 1361.88 689.464 1370.64 673.033C1376.94 661.184 1381.25 648.513 1384.05 635.44C1386.03 626.143 1386.37 616.547 1385.37 607.19C1384.57 599.758 1385.7 592.594 1385.94 585.312C1386.47 568.955 1383.98 553.196 1376.52 538.391C1374.75 534.869 1371.92 532.437 1368.53 530.511C1352.28 521.229 1339 508.812 1328.18 493.665C1324.92 489.083 1321.53 484.591 1318.79 479.667C1315.37 473.533 1309.88 469.667 1303.99 465.951C1291.6 458.116 1280.36 448.655 1268.34 440.283C1256.95 432.358 1245.31 425.15 1231.38 421.822C1218.61 418.778 1206.5 419.688 1194.31 423.762C1187.77 425.941 1181.47 428.747 1174.36 429.284C1169.82 429.627 1165.29 429.448 1160.95 428.926C1155.97 428.329 1150.95 428.224 1146.02 427.926C1134.67 427.239 1123.6 425.255 1112.65 422.598C1100.4 419.628 1088.43 419.673 1076.33 423.016C1068.6 425.15 1060.66 426.389 1052.77 427.792C1036.99 430.612 1021.11 430.791 1005.2 430.537C996.051 430.388 987.022 429.135 977.963 427.822C968.753 426.478 959.557 424.971 950.407 423.3C936.07 420.688 922.005 417.061 908.983 410.196C898.593 404.719 887.447 402.75 875.605 403.227C863.339 403.72 851.951 407.555 840.412 410.913C834.801 412.539 829.099 413.569 823.337 414.002C817.923 414.405 812.629 412.883 807.366 411.614C799.608 409.764 791.728 408.585 783.788 407.555C772.43 406.077 761.042 405.928 749.654 406.346C742.758 406.6 735.831 407.241 728.934 408.226C721.282 409.331 713.508 410.614 705.734 409.734C698.641 408.943 692.229 406.033 686.512 401.869C679.858 397.034 673.37 392.005 666.201 387.871C663.6 386.363 660.832 385.274 658.14 384.08C649.353 380.2 645.632 373.38 645.89 364.291C646.116 356.725 644.226 349.561 642.048 342.487C641.398 340.383 642.275 338.249 641.126 336.354" stroke="#8E8E8E" stroke-linecap="round" stroke-linejoin="round" stroke-dasharray="4 8"/>
<path d="M164.197 728.952C164.953 734.071 164.696 739.234 165.891 744.383C167.736 752.367 170.685 759.874 174.783 766.888C182.119 779.454 187.336 792.721 190.028 807.018C192.72 821.36 201.507 830.508 215.376 835.373C226.023 839.104 237.079 841.522 247.711 845.298C261.685 850.267 272.241 858.953 280.091 871.444C288.046 884.099 296.137 896.74 305.196 908.634C314.679 921.08 327.413 930.094 341.327 937.437C348.314 941.123 355.301 944.555 363.105 946.436C375.537 949.45 386.94 947.346 397.996 941.391C405.497 937.347 413.059 933.348 420.878 929.975C431.722 925.304 442.807 925.557 454.271 928.646C465.72 931.736 475.414 938.064 485.819 943.108C492.096 946.167 498.811 947.615 505.752 948.585C519.908 950.57 533.323 947.242 546.783 943.839C566.822 938.765 586.377 931.93 606.658 927.632C614.266 926.02 621.858 924.542 629.541 923.363C640.022 921.767 650.411 919.618 660.771 917.379C669.815 915.439 678.799 913.23 687.979 911.962C710.861 908.828 732.609 902.888 751.196 888.382C756.338 884.368 760.997 879.921 765.67 875.429C775.455 865.982 786.495 858.221 798.715 852.177C806.504 848.327 814.716 845.462 823.004 842.805C835.33 838.88 846.355 832.657 856.458 824.613C862.734 819.614 870.236 816.42 877.525 813.256C887.205 809.063 895.296 813.361 901.376 820.644C906.593 826.897 909.346 834.627 913.732 841.402C920.401 851.7 928.054 860.982 939.518 866.459C945.824 869.474 952.615 870.862 959.481 871.026C975.875 871.414 988.02 878.772 996.443 892.277C1001.6 900.56 1004.85 909.873 1010.31 918.021C1015.32 925.498 1019.93 933.243 1028.05 938.138C1034.15 941.809 1040.61 943.944 1047.67 944.988C1056.68 946.316 1065.63 945.63 1074.53 944.779C1086.85 943.585 1098.85 940.392 1110.84 937.407C1123.11 934.348 1135.43 931.542 1147.83 929.02C1154.99 927.572 1162.14 927.423 1169.26 927.826C1175.15 928.169 1180.91 929.9 1186.32 932.362C1195.93 936.705 1205.61 940.705 1216.07 942.869C1222 944.093 1227.94 945.197 1233.9 946.257C1244.46 948.137 1255.01 950.047 1265.47 952.42C1279.03 955.495 1292.31 959.509 1305.44 964.12C1314.65 967.359 1324.09 965.881 1333.36 963.195C1341.78 960.763 1349.33 956.524 1356.92 952.36C1359.72 950.838 1362.48 949.271 1365.28 947.734C1374.9 942.481 1381.24 934.676 1384.2 924.125C1387.26 913.29 1391.43 903.022 1398.57 893.934C1403.45 887.711 1406.9 880.398 1407.98 872.518C1408.76 866.743 1408.57 860.788 1407.05 854.983C1404.24 844.119 1407.92 834.358 1416.52 827.478C1425.49 820.315 1434.46 813.152 1439.93 802.989C1443.65 796.079 1447.07 789.035 1451.67 782.633C1454.06 779.305 1456.39 775.992 1458.28 772.29C1463.41 762.262 1462.95 752.382 1458.99 742.145C1454.72 731.131 1448.28 721.132 1444.29 709.969C1440.6 699.657 1437.76 689.285 1436.32 678.42C1435.06 668.959 1435.08 659.527 1435.82 650.125C1436.38 642.917 1437.79 635.708 1439.43 628.65C1440.63 623.531 1441.02 618.367 1441.42 613.219C1442.05 604.996 1441.57 596.713 1440.67 588.52C1439.78 580.267 1439.16 572.014 1440.13 563.806C1442.29 545.674 1441.37 527.512 1441.4 509.349C1441.4 502.753 1440.84 496.097 1438.98 489.65C1436.97 482.666 1432.86 476.771 1429.13 470.697C1420.8 457.087 1411.79 443.909 1403.12 430.507C1398.21 422.926 1391.29 419.285 1382.7 419.24C1372.98 419.195 1363.3 418.494 1353.68 417.539C1337.2 415.912 1321.6 411.181 1307.96 401.51C1300.54 396.242 1296.03 388.676 1294.29 380.035C1292.6 371.618 1294.12 363.336 1299.24 356.083C1305.47 347.218 1309.75 337.488 1312.14 327.026C1312.65 324.803 1313.07 322.325 1313.04 319.893C1312.97 312.729 1313.3 305.551 1312.94 298.403C1312.55 290.403 1311.32 282.464 1306.1 275.853C1304.05 273.256 1301.91 270.689 1299.57 268.346C1291.87 260.66 1284.28 252.855 1275.99 245.767C1269.71 240.409 1262.37 237.185 1254.23 235.738C1246.76 234.41 1239.04 234.589 1231.72 232.171C1227.13 230.649 1222.71 228.753 1218.29 226.798C1211.75 223.903 1205.2 222.814 1198.32 226.351C1190.24 230.485 1185.23 239.29 1188.52 249.348C1190.54 255.571 1193.23 261.541 1194.78 267.943C1197.94 281.151 1192.86 288.299 1180.58 291.612C1175.57 292.955 1170.47 293.388 1165.33 293.806C1159.22 294.298 1153.32 295.955 1147.53 297.985C1140.86 300.313 1134.24 302.67 1127.95 305.909C1117.86 311.102 1111.58 319.758 1106.17 329.19C1101.34 337.607 1098.06 346.711 1094.58 355.71C1090.21 367.037 1082.5 375.334 1071.65 380.707C1064.06 384.468 1057 389.333 1048.8 391.84C1032.06 396.974 1016.94 393.317 1003.08 383.274C996.701 378.647 991.513 372.693 985.297 367.887C977.69 362.007 969.236 358.097 959.542 356.724C948.698 355.187 938.217 352.307 928.266 347.561C924.697 345.86 922.034 343.367 920.431 340.248C915.319 330.294 912.098 319.788 913.838 308.431C914.533 303.88 916.212 299.581 918.495 295.522C928.991 276.987 944.297 263.123 962.476 252.288C969.024 248.378 975.785 244.752 983.074 242.08C994.054 238.051 1003.39 240.349 1012.19 247.498C1019.6 253.512 1028.22 255.512 1037.53 252.855C1044.2 250.96 1047.56 248.781 1047.64 240.021C1047.7 232.365 1047 224.739 1044.11 217.441C1039.27 205.279 1029.91 198.443 1017.6 194.862C1011.64 193.13 1005.38 192.728 999.453 190.937C992.285 188.773 986.144 184.49 979.52 181.221C960.071 171.581 939.699 164.656 918.541 159.686C908.181 157.254 897.746 155.164 887.28 153.478C878.266 152.03 869.177 150.836 860.088 149.658C846.839 147.926 833.682 145.568 820.509 143.285C813.461 142.061 806.459 140.45 799.486 138.898C787.962 136.331 777.482 138.614 767.545 144.091C758.773 148.926 751.786 155.821 746.886 164.492C742.591 172.103 741.003 180.311 741.593 189.176C742.243 199.025 740.489 208.756 737.373 218.173C732.579 232.708 725.561 246.169 716.623 258.601C713.099 263.496 708.063 267.033 702.483 269.286C696.63 271.659 690.111 269.57 686.497 264.779C683.427 260.72 681.884 256.049 680.024 251.482C676.712 243.349 674.458 234.827 670.95 226.769C663.63 209.994 651.122 198.608 633.942 191.996C624.368 188.31 614.629 185.131 604.511 183.505C579.133 179.416 555.616 184.251 534.064 198.414C524.945 204.413 517.277 211.905 509.836 219.65C500.005 229.888 488.27 237.096 474.93 241.752C466.854 244.572 458.491 246.304 449.916 247.289C443.972 247.975 438.013 248.856 432.1 249.915C428.53 250.557 424.856 251.004 421.226 251.422C408.325 252.93 395.394 254.288 382.403 253.557C375.128 253.154 367.914 252.975 360.61 253.512C346.378 254.557 333.175 258.302 321.832 266.943C313.923 272.972 305.196 277.226 295.608 279.255C286.836 281.106 277.777 281.479 268.793 280.434C262.744 279.733 256.679 280.524 250.629 279.792C243.279 278.912 235.838 279.061 228.503 279.524C217.75 280.21 208.812 285.329 202.082 293.433C192.388 305.103 184.07 317.758 177.34 331.339C172.319 341.457 168.734 352.098 166.829 363.216C165.634 370.201 165.724 377.319 166.193 384.333C166.541 389.586 167.54 394.795 167.54 400.108C167.509 419.344 161.807 436.85 150.389 452.341C143.659 461.459 136.929 470.548 131.273 480.368C126.63 488.426 123.831 497.246 124.119 506.484C124.421 516.468 128.112 525.557 134.116 533.735C143.281 546.226 149.088 560.239 152.219 575.282C153.686 582.311 154.079 589.55 154.079 596.758C154.079 605.249 154.004 613.771 155.259 622.173C157.013 633.843 160.582 644.976 166.844 655.109C169.944 660.109 170.821 665.66 171.925 671.242C174.33 683.45 170.02 694.807 167.434 706.328C166.012 712.625 164.59 718.849 164.635 725.34C164.635 726.43 164.817 727.534 164.273 728.564" stroke="#404040" stroke-width="1.5" stroke-linecap="round" stroke-linejoin="round" stroke-dasharray="4 8"/>
<path d="M1232.06 824.583C1232.63 827.493 1232.62 830.463 1234.19 833.209C1237.53 839.029 1243.2 841.686 1249.15 843.089C1264.85 846.775 1282.43 841.865 1291.87 828.135C1296.82 820.942 1299.25 812.585 1301.38 804.182C1303.76 794.915 1306.09 785.498 1311.99 777.738C1317.92 769.947 1322.48 761.635 1324.93 752.233C1326.37 746.726 1327.5 741.115 1327.47 735.414C1327.41 721.251 1329.86 707.477 1333.64 693.851C1336.43 683.793 1337.71 673.465 1336.84 663.064C1336.4 657.87 1334.76 652.781 1333.69 647.647C1332.45 641.737 1331.5 635.768 1331.18 629.739C1330.98 625.933 1331.22 622.098 1331.13 618.277C1330.88 607.577 1333.04 597.235 1336.31 587.147C1338.02 581.864 1338.09 577.371 1334.95 572.342C1331.75 567.238 1330.44 561.12 1329.02 555.24C1326.08 543.047 1318.38 534.003 1309.26 525.989C1307.65 524.572 1306.06 522.855 1303.93 521.915C1301.22 520.706 1298.75 519.721 1295.53 520.766C1289.47 522.736 1286.44 521.437 1282.5 516.214C1279.24 511.901 1275.98 507.618 1272.7 503.32C1262.76 490.291 1253.5 476.756 1243.34 463.891C1241.01 460.937 1239.63 457.4 1238.17 453.922C1235.63 447.893 1231.59 445.55 1224.78 445.013C1215.8 444.297 1207.33 446.878 1199.01 449.967C1189.74 453.415 1180.2 454.101 1170.34 453.683C1161.64 453.31 1153.13 451.818 1144.6 450.55C1136.7 449.371 1128.84 447.789 1120.96 446.535C1111.66 445.043 1102.39 443.297 1093.05 441.954C1088.2 441.267 1083.41 440.342 1078.52 440.7C1072.82 441.103 1067.12 441.67 1061.46 442.506C1057.83 443.043 1054.17 443.058 1050.54 443.356C1038.61 444.326 1026.75 445.49 1014.96 447.699C1009.51 448.729 1003.84 448.52 998.274 448.893C985.54 449.729 972.866 448.266 960.162 447.744C944.176 447.087 929.113 442.342 914.428 436.342C902.994 431.671 891.062 430.119 878.857 431.417C868.028 432.567 858.394 437.208 849.456 443.177C840.231 449.326 829.901 452.937 819.284 455.579C810.195 457.847 801.257 456.057 792.818 452.102C783.713 447.849 774.064 445.625 764.143 444.192C754.6 442.819 745.133 440.998 735.847 438.446C726.167 435.79 716.76 437.044 707.55 440.013C700.29 442.357 692.97 443.311 685.378 443.207C681.144 443.147 676.939 443.297 672.659 442.953C662.36 442.118 653.24 438.432 644.756 433.074C633.08 425.702 621.284 418.523 609.548 411.211C598.825 404.525 593.32 394.168 590.673 382.259C588.889 374.215 588.798 366.007 589.993 357.918C591.974 344.561 595.558 331.697 603.997 320.609C605.948 318.042 608.005 315.609 610.637 313.908C617.881 309.222 622.085 295.596 616.928 285.836C610.516 273.703 602.394 263.496 589.872 257.347C584.382 254.661 578.347 253.347 572.132 252.929C553 251.631 536.424 258.884 520.212 267.615C504.861 275.882 489.888 284.837 474.129 292.358C466.144 296.164 457.856 299.507 450.234 303.924C434.445 313.072 422.406 326.145 413.634 341.845C407.479 352.859 402.14 364.35 396.907 375.841C392.567 385.348 391.977 395.376 394.654 405.54C398.072 418.568 401.943 431.462 406.284 444.222C410.231 455.818 417.99 464.429 428.441 470.697C442.793 479.308 456.48 488.829 469.471 499.335C480.587 508.334 493.548 513.558 507.538 516.602C519.516 519.214 531.63 520.199 543.85 520.109C560.471 519.99 576.578 522.84 592.095 528.466C608.746 534.496 625.443 540.361 642.593 544.823C652.56 547.405 662.632 548.822 673.083 547.539C679.072 546.808 685.182 546.494 691.201 545.823C698.823 544.987 706.491 544.3 714.098 543.226C718.998 542.524 724.005 542.107 728.965 541.659C741.488 540.525 753.602 538.063 764.128 530.839C769.452 527.183 775.229 525.422 781.581 525.168C783.547 525.094 785.392 524.482 787.388 524.362C795.706 523.87 803.707 525.765 811.692 527.377C820.842 529.228 829.916 531.391 838.597 535.093C848.367 539.256 857.472 544.39 865.79 550.927C876.558 559.403 885.088 569.925 893.376 580.655C897.837 586.445 904.008 590.266 909.709 594.623C918.995 601.727 926.587 610.472 934.013 619.337C940.078 626.56 945.931 633.858 954.657 638.424C959.573 641.006 964.714 642.23 969.978 643.275C978.341 644.931 986.856 645.722 995.37 645.737C1002.3 645.737 1009.25 645.379 1016.06 643.693C1024.12 641.708 1032.32 641.738 1040.36 643.379C1053.22 646.006 1066.01 647.483 1079.23 646.319C1090.44 645.334 1101.28 643.29 1111.88 639.708C1117.84 637.693 1123.73 635.38 1129.26 632.47C1137.63 628.067 1146.41 626.068 1155.8 626.097C1162.99 626.127 1169.66 623.934 1176.12 621.083C1187.58 616.039 1198.6 617.218 1208.72 624.053C1217.58 630.052 1226.14 636.574 1233.8 644.051C1243.84 653.871 1247.89 665.899 1247 679.838C1246.5 687.524 1243.98 694.836 1243.45 702.403C1243.05 708.074 1242.87 713.834 1243.84 719.61C1244.53 723.729 1245.05 727.937 1245.55 732.101C1246.14 737.011 1246.92 741.921 1247.45 746.816C1247.95 751.472 1248.57 756.143 1249.25 760.739C1249.99 765.709 1249.69 770.35 1248.39 775.096C1247.63 777.842 1246.3 780.245 1244.76 782.633C1239.03 791.438 1235.29 801.078 1233.21 811.286C1232.35 815.48 1232.41 819.867 1232.04 824.165" stroke="#C9C9C9" stroke-width="1.5" stroke-linecap="round" stroke-linejoin="round"/>
<path d="M1388.5 487.904C1394.8 487.65 1398.75 491.187 1401.52 496.157C1406.43 504.992 1409.43 514.453 1411.05 524.422C1412.53 533.571 1413.51 542.779 1413.09 552.002C1412.53 564.179 1412.03 576.372 1411.09 588.55C1410.59 594.967 1410.65 601.474 1411.44 607.876C1412.18 613.89 1411.59 619.845 1411.24 625.784C1410.87 632.231 1410.93 638.693 1410.44 645.14C1409.51 657.423 1408.6 669.72 1408.27 682.017C1407.89 695.851 1407.24 709.701 1407.99 723.565C1408.26 728.624 1409.31 733.564 1409.55 738.608C1409.97 747.323 1407.15 755.083 1402.31 762.247C1393.08 775.887 1382.83 788.781 1372.51 801.631C1366.39 809.257 1361.61 817.599 1359.64 827.12C1358.79 831.224 1358.73 835.612 1358.99 839.985C1359.93 855.386 1359.46 870.653 1349.28 883.652C1342.82 891.904 1334.19 897.158 1324.27 900.53C1317.28 902.903 1310.2 904.709 1302.85 905.545C1284.33 907.634 1266.04 911.037 1248.03 915.872C1242.6 917.335 1236.99 917.976 1231.35 918.499C1226.48 918.961 1221.73 919.275 1216.81 918.499C1207.15 916.991 1199.53 912.395 1193.19 905.201C1188.55 899.918 1185.87 893.501 1182.47 887.546C1177.42 878.697 1171.06 877.846 1162.05 881.95C1153.49 885.845 1145.93 891.486 1138.03 896.516C1126.98 903.545 1114.76 907.634 1101.8 909.947C1095.61 911.051 1089.44 911.589 1083.27 911.186C1073.7 910.559 1065.12 906.903 1057.51 901.202C1050.74 896.113 1046.1 889.352 1042.13 881.95C1039.4 876.846 1035.92 872.071 1031.71 867.922C1023.73 860.042 1015.68 852.222 1007.77 844.268C999.711 836.164 993.767 826.762 991.09 815.629C989.306 808.167 989.487 800.706 990.53 793.05C991.695 784.618 994.675 776.604 995.189 768.008C995.809 757.77 989.503 749.86 979.067 750.024C966.152 750.218 954.944 754.755 944.585 761.919C937.386 766.888 929.703 767.903 921.34 765.172C903.917 759.471 888.158 763.053 873.397 773.321C864.958 779.186 856.776 785.558 847.294 789.841C836.51 794.721 825.288 798.153 813.583 800.422C806.323 801.825 798.852 801.884 791.729 804.436C784.061 807.197 777.86 811.689 772.945 817.838C760.574 833.284 747.703 848.118 730.462 858.684C718.197 866.206 704.918 871.28 691.216 875.444C681.371 878.443 671.222 880.13 661.089 881.876C656.779 882.607 652.393 883.055 648.023 883.308C638.313 883.861 629.95 879.98 622.282 874.697C609.608 865.982 599.551 855.117 594.227 840.388C591.656 833.254 590.325 825.956 589.131 818.524C587.724 809.824 587.754 801.094 587.437 792.363C587.013 780.857 591.157 771.067 598.598 762.217C608.837 750.054 620.603 739.772 634.214 731.444C642.911 726.132 652.484 722.595 661.452 717.864C685.272 705.298 704.933 688.285 718.757 665.183C723.4 657.423 727.74 649.394 729.615 640.484C731.37 632.202 732.247 623.949 727.226 616.099C723.309 609.965 717.123 608.04 710.801 606.16C703.345 603.936 695.602 603.085 687.949 601.772C674.081 599.399 660.878 594.997 648.748 587.833C641.686 583.655 633.957 581.909 625.881 580.998C612.95 579.536 599.793 579.401 587.391 574.641C580.086 571.835 573.523 567.806 567.08 563.493C559.806 558.628 551.684 556.061 543.124 554.509C535.426 553.106 527.622 552.718 519.894 551.643C498.01 548.614 476.837 543.122 457.1 533.019C448.737 528.735 439.768 527.348 430.603 528.138C421.741 528.915 413.15 531.481 404.454 533.392C396.62 535.123 388.801 536.884 380.861 538.063C375.053 538.928 369.094 539.824 364.225 543.152C357.147 548.002 355.272 555.449 355.877 563.478C356.542 572.357 358.16 581.133 359.189 589.982C360.005 597.026 360.429 604.1 361.321 611.114C362.138 617.531 365.208 623.292 368.626 628.605C376.611 641.022 382.872 654.095 386.305 668.422C388.665 678.316 390.812 688.255 393.247 698.135C394.472 703.089 396.03 707.955 397.588 712.82C399.297 718.162 399.13 723.431 398.435 728.967C397.512 736.295 396.892 743.697 398.223 751.174C401.339 768.739 406.224 785.797 412.833 802.377C417.536 814.182 424.039 824.882 432.735 834.299C438.014 840.014 443.761 844.969 450.506 849.044C461.032 855.401 472.148 855.953 483.567 853.133C490.236 851.491 496.936 851.476 503.545 851.998C508.128 852.357 512.846 852.312 517.368 853.909C530.132 858.386 538.708 866.967 541.823 879.801C543.638 887.293 541.43 894.456 534.08 899.127C528.802 902.47 523.448 905.291 516.99 905.56C508.279 905.918 500.944 902.5 494.138 897.65C487.438 892.874 482.689 886.263 477.396 880.144C472.345 874.309 467.218 868.549 458.945 866.788C452.82 865.489 447.118 866.041 441.507 868.638C433.673 872.265 427.185 877.787 420.47 882.995C412.031 889.532 403.743 896.262 394.669 901.933C388.604 905.724 382.116 908.53 374.721 908.395C371.56 908.336 368.429 907.738 365.662 906.231C358.221 902.172 349.993 900.336 342.068 897.62C326.007 892.098 312.804 882.607 301.658 869.817C290.36 856.849 282.254 841.686 271.289 828.523C265.345 821.39 259.417 814.271 252.793 807.734C245.942 800.974 240.436 793.199 237.185 784.125C233.464 773.738 229.064 763.799 221.986 755.054C218.25 750.428 214.137 746.323 209.554 742.577C203.777 737.877 199.269 732.444 197.092 725.057C195.11 718.326 195.458 711.745 197.304 705.358C201.448 691.061 204.79 676.63 207.406 662.004C208.843 654.005 210.84 646.125 211.823 638.007C212.836 629.56 210.764 621.919 206.181 615.144C199.527 605.309 195.701 594.489 192.872 583.192C190.982 575.685 188.335 568.433 185.22 561.344C180.471 550.494 174.799 540.107 168.931 529.795C164.651 522.288 162.549 513.976 162.489 505.469C162.443 497.545 164.273 489.814 167.767 482.531C172.758 472.145 179.2 462.608 185.235 452.818C189.923 445.207 192.646 437.074 192.509 428.09C192.479 425.941 192.797 423.792 192.842 421.643C193.114 406.928 192.207 392.273 191.209 377.573C189.984 359.634 196.608 343.815 207.391 329.593C210.688 325.25 214.333 321.206 218.235 317.371C224.33 311.386 231.468 307.805 240.028 306.536C242.72 306.133 245.367 305.969 248.029 305.969C266.056 305.954 284.084 306.178 302.111 306.387C312.638 306.506 323.088 303.835 332.631 298.492C345.048 291.537 358.402 286.762 372.149 283.016C386.033 279.226 400.189 276.659 414.254 273.704C425.219 271.406 436.169 268.675 447.3 267.794C463.845 266.496 476.912 257.317 491.234 250.855C500.263 246.781 509.201 242.737 517.005 236.499C522.072 232.469 527.335 228.679 532.915 225.306C545.559 217.635 558.959 212.114 573.568 209.129C584.926 206.816 596.345 205.95 607.688 207.263C623.794 209.114 635.787 217.68 643.667 231.798C649.444 242.155 652.182 253.482 655.327 264.735C658.352 275.524 662.435 285.881 668.984 295.254C673.839 302.208 680.463 305.491 688.66 305.879C692.789 306.073 696.918 305.059 700.971 304.372C706.295 303.477 711.678 302.775 717.002 301.835C723.067 300.76 728.859 298.85 734.727 297.254C744.996 294.478 753.995 296.045 761.995 303.074C764.854 305.596 768.257 306.804 772.144 306.685C775.168 306.595 778.299 306.178 781.203 306.775C786.965 307.939 790.594 313.267 791.85 319.549C793.725 328.922 790.655 337.443 788.069 346.054C786.375 351.71 786.844 356.5 791.366 360.784C798.807 367.842 807.412 372.946 817.56 374.588C826.075 375.961 834.045 372.991 841.471 368.947C844.511 367.29 847.278 365.127 850.212 363.261C858.833 357.814 867.529 358.784 876.346 362.873C897.005 372.469 917.725 381.975 938.399 391.556C943.239 393.795 948.487 394.586 953.659 395.422C965.682 397.362 977.312 400.734 988.852 404.435C997.367 407.167 1005.46 411.151 1014.26 413.017C1023.14 414.912 1032.02 415.121 1041.14 414.24C1055.08 412.897 1067.42 407.167 1079.93 401.854C1097.23 394.496 1114.62 387.467 1132.59 381.841C1137.88 380.185 1138.77 377.842 1136.22 372.902C1134.21 369.007 1131.98 365.157 1131.53 360.724C1130.61 351.919 1137.67 345.681 1144.57 343.159C1160.39 337.354 1174.98 340.487 1188.83 348.934C1193.43 351.74 1197.82 354.859 1202.28 357.859C1207.83 361.59 1213.5 361.485 1219.35 358.575C1222.92 356.799 1226.58 355.053 1230.61 354.665C1238.21 353.919 1243.39 357.366 1246.97 363.918C1256.26 380.931 1267.52 396.571 1280.26 411.271C1292.92 425.911 1307.9 436.955 1326.01 444.282C1339.48 449.744 1349.93 459.086 1356.51 472.115C1362.27 483.516 1374.27 489.62 1388.12 487.501" stroke="#8E8E8E" stroke-width="1.5" stroke-linecap="round" stroke-linejoin="round" stroke-dasharray="4 8"/>
<path d="M336.971 135.107C341.478 138.495 344.548 143.181 348.163 147.329C357.252 157.776 365.978 168.417 380.134 172.819C386.017 174.64 391.991 175.744 397.965 176.983C407.145 178.878 416.356 180.595 425.551 182.386C430.391 183.326 435.261 184.191 440.07 185.281C448.116 187.101 454.846 191.713 461.833 195.682C468.291 199.354 474.809 202.771 482.19 204.219C484.307 204.637 485.305 205.666 485.487 207.815C485.668 209.92 484.821 211.069 482.901 211.77C479.483 213.009 475.853 213.442 472.344 214.143C464.57 215.695 457.326 218.516 450.248 221.814C440.418 226.41 430.209 229.38 419.396 230.843C410.654 232.037 401.928 231.932 393.262 231.305C386.32 230.798 379.423 229.261 372.527 228.082C365.676 226.918 358.598 226.604 351.505 227.052C342.34 227.634 333.886 230.171 326.158 234.768C319.639 238.648 313.514 243.185 307.601 247.96C297.437 256.139 285.974 260.377 272.74 260.198C265.829 260.108 258.902 260.063 252.066 259.317C243.219 258.362 234.538 256.362 225.902 254.109C218.582 252.199 211.111 250.99 203.413 251.467C198.558 251.766 195.443 254.124 192.842 257.944C189.953 262.183 188.304 266.943 186.338 271.584C183.525 278.196 178.413 283.329 174.33 289.105C166.859 299.671 161.974 311.371 158.057 323.534C155.335 331.996 153.021 340.592 151.675 349.337C150.873 354.516 150.404 359.799 149.95 365.067C149.043 375.707 150.071 386.363 149.194 396.944C148.136 409.912 142.752 420.971 132.346 429.642C125.163 435.626 116.83 439.671 108.98 444.506C100.042 450.013 93.7957 457.34 90.529 467.16C86.5514 479.159 81.4247 490.695 76.3733 502.261C71.4883 513.438 73.9231 520.87 81.5304 529.049C88.8049 536.884 96.8357 544.032 104.292 551.718C113.956 561.672 120.036 573.477 122.531 587.132C123.923 594.773 123.802 602.369 123.681 610.07C123.514 622.188 124.966 634.097 129.624 645.573C132.195 651.901 135.265 657.96 139.273 663.362C147.319 674.242 148.589 686.285 146.321 698.881C144.824 707.208 143.311 715.491 143.553 723.968C144.022 740.906 139.772 756.606 131.999 771.649C125.193 784.812 117.419 797.198 106.485 807.391C98.3934 814.928 88.6992 819.002 77.4773 818.838C71.7757 818.748 66.3008 816.987 60.7806 815.689C52.3113 813.704 38.4881 817.987 33.8753 824.941C31.7883 828.09 31.9246 831.314 33.316 834.239C35.0249 837.836 37.5052 841.223 40.8627 843.566C51.0561 850.655 56.5761 860.758 59.1623 872.309C60.4478 878.04 60.6141 884.114 59.5101 890.203C58.3909 896.322 57.5744 902.664 60.3874 908.828C64.1078 916.976 70.853 921.185 78.914 924.274C88.2151 927.841 96.9265 925.975 105.819 922.811C125.178 915.946 144.113 908.291 161.339 896.978C168.462 892.307 174.889 886.756 181.272 881.189C191.238 872.474 202.309 865.653 215.436 863.042C231.392 859.863 246.743 861.758 260.777 870.504C264.952 873.1 266.736 877.637 269.08 881.607C274.54 890.83 280.03 900.038 284.491 909.828C287.425 916.26 289.104 923.05 291.645 929.572C297.619 944.869 308.312 955.852 322.815 963.672C331.436 968.314 340.54 971.299 350.099 972.836C364.421 975.134 378.334 973.045 391.825 967.911C399.583 964.956 407.372 962.165 415.403 959.956C424.371 957.479 432.871 959.106 441.174 962.24C450.823 965.881 458.869 972.283 467.338 977.925C475.429 983.312 484.458 986.073 494.183 985.745C502.183 985.461 509.911 983.431 517.035 979.715C525.776 975.149 534.987 971.821 544.651 970.179C554.527 968.508 564.645 968.538 574.354 970.926C586.393 973.895 598.552 974.239 610.681 973.477C622.266 972.746 633.427 969.463 644.09 964.732C653.829 960.404 664.038 957.434 674.579 955.823C681.294 954.793 688.115 955.853 694.891 955.733C700.229 955.644 705.341 954.27 709.742 951.39C727.649 939.645 745.071 927.229 762.025 914.156C774.139 904.813 787.524 898.038 802.375 894.233C806.383 893.203 810.587 892.77 814.701 892.068C821.613 890.889 826.876 887.338 831.383 882.323C838.945 873.891 848.382 867.862 858.651 863.46C870.644 858.326 881.14 861.788 887.84 873.802C895.326 887.203 903.357 900.396 908.756 914.887C910.223 918.827 911.932 922.707 912.96 926.751C915.577 937.004 923.547 941.571 934.466 938.228C942.3 935.825 949.938 932.915 957.697 930.318C969.417 926.408 980.171 928.378 990.001 935.675C994.674 939.153 998.47 943.555 1002.72 947.48C1010.63 954.763 1018.89 961.568 1029.2 965.404C1038.64 968.911 1048.23 969.612 1058.25 968.015C1070.49 966.075 1082.1 961.837 1094.14 959.21C1106.02 956.628 1117.84 953.868 1129.71 951.331C1141.24 948.868 1152.76 946.824 1164.57 947.167C1179.05 947.6 1192.73 950.793 1205.67 957.733C1217.42 964.046 1230.24 967.866 1243.32 970.806C1262.44 975.089 1281.86 977.999 1300.7 983.566C1311.55 986.774 1322.72 986.864 1334.08 986.028C1341.98 985.461 1349.99 983.999 1358.04 985.7C1361.43 986.416 1365.03 985.998 1368.55 986.416C1376.37 987.356 1384.26 987.909 1392.13 988.267C1406.8 988.939 1417.1 982.163 1424.1 969.702C1429.38 960.344 1432.01 950.092 1434.93 939.944C1440.07 922.05 1450.1 907.529 1465.05 896.217C1469.5 892.859 1474.49 890.367 1478.89 886.965C1484.5 882.637 1487.8 877.16 1487.1 870.116C1486.65 865.519 1484.88 861.057 1482.82 856.878C1477.83 846.73 1476.93 835.896 1477.94 825.001C1478.68 816.957 1481.84 809.391 1485.37 802.049C1488.51 795.467 1490.4 788.483 1491.6 781.29C1494.59 763.292 1488.48 747.681 1478.88 732.922C1471.1 720.983 1464.39 708.522 1460.03 694.956C1458.02 688.673 1456.74 682.241 1455.87 675.644C1454.39 664.511 1455.83 654.08 1461.05 644.096C1463.87 638.693 1467.49 633.918 1471.98 629.799C1479 623.367 1484.44 615.86 1488.3 607.219C1494.82 592.579 1493.62 578.178 1482.14 566.015C1471.6 554.852 1465.28 541.644 1462.44 526.646C1461.26 520.453 1461.35 514.17 1460.32 508.006C1458.97 499.948 1456.96 492.068 1454.18 484.352C1449.84 472.279 1444.09 460.773 1439.28 448.893C1433.67 435.059 1429.75 420.717 1426.22 406.271C1423.3 394.362 1417.51 387.497 1403.73 386.109C1394.43 385.169 1385.31 385.512 1376.13 386.885C1368.29 388.049 1360.43 389.243 1352.53 389.661C1346.36 389.989 1340.04 388.974 1334.81 385.408C1329.47 381.766 1327.14 374.349 1328.55 367.216C1329.38 362.977 1331.01 359.038 1332.52 355.023C1335.47 347.218 1335.79 339.025 1333.89 331.071C1331.65 321.713 1332.3 312.893 1336.18 304.178C1340.33 294.88 1344.41 285.553 1348.54 276.241C1351.46 269.644 1356.93 267.406 1363.79 267.66C1376.29 268.107 1386.02 273.928 1393.5 283.449C1399.72 291.359 1407.13 297.895 1415.74 303.044C1421.79 306.67 1428.7 307.461 1435.65 307.013C1445.76 306.372 1454.75 302.73 1462.51 296.298C1469.52 290.478 1473.42 283.046 1474.93 274.107C1476.56 264.466 1475.25 255.318 1471.19 246.528C1467.04 237.484 1460.71 230.41 1451.65 225.694C1442.66 221.008 1433.25 217.187 1424.66 211.576C1414.06 204.651 1405.36 196.056 1397.48 186.385C1393.11 181.012 1387.83 176.401 1381.89 172.789C1372.38 167.029 1362.33 168.805 1352.55 172.073C1341.58 175.744 1331.66 181.4 1323.16 189.235C1320.73 191.474 1318.73 194.175 1316.6 196.727C1310.97 203.458 1303.86 207.875 1295.17 209.174C1288.73 210.129 1282.28 208.815 1276.34 206.323C1264.42 201.338 1251.88 198.234 1239.65 194.235C1233.02 192.071 1226.78 188.982 1220.08 186.967C1204.24 182.221 1189.73 185.131 1176.57 194.295C1166.48 201.324 1156.7 208.89 1148.21 217.859C1143.75 222.575 1139.65 227.589 1135.75 232.798C1131.14 238.946 1125.77 244.453 1118.81 248.319C1110.73 252.825 1105.33 249.796 1100.66 245.005C1094.6 238.812 1091.48 230.813 1088 223.157C1083.81 213.919 1078.57 205.338 1072.26 197.443C1066.28 189.967 1059.03 183.848 1050.57 179.072C1042.6 174.58 1034.15 171.879 1025.13 170.491C1017.18 169.267 1009.13 169.327 1001.18 168.327C994.568 167.506 988.201 165.537 981.94 163.343C971.55 159.687 960.797 157.478 949.998 155.463C940.954 153.777 932.364 150.926 924.182 146.598C913.399 140.897 901.708 137.51 889.745 135.077C888.929 134.913 888.051 135.062 887.204 135.062" stroke="#C9C9C9" stroke-linecap="round" stroke-linejoin="round" stroke-dasharray="4 8"/>
<path d="M313.378 1059.54C319.428 1051.9 325.251 1044.08 331.587 1036.66C338.726 1028.32 346.908 1026.07 358.372 1030.55C367.597 1034.16 376.52 1038.55 386.32 1040.56C394.472 1042.25 402.639 1042.89 411.018 1042.46C418.791 1042.04 426.262 1040.54 433.491 1037.99C441.991 1034.98 448.706 1030.08 451.383 1020.88C452.502 1017.03 452.366 1013.28 451.201 1009.77C446.165 994.64 436.002 985.073 419.729 982.089C411.426 980.566 403.713 981.969 396.121 985.044C383.84 990.013 372.089 996.102 360.171 1001.83C354.122 1004.74 347.936 1007.34 340.949 1007.28C336.684 1007.24 332.601 1006.24 329.032 1004.27C324.479 1001.74 319.7 999.953 314.815 998.281C305.847 995.222 297.619 990.655 290.194 984.954C282.722 979.223 276.325 972.344 270.865 964.643C267.704 960.181 266.238 955.286 266.192 949.943C266.132 943.257 266.419 936.556 266.132 929.886C265.572 917.305 262.577 905.425 255.348 894.755C251.416 888.95 246.395 884.667 239.68 882.667C230.515 879.936 222.001 881.995 214.318 887.308C208.676 891.203 204.033 896.277 199.481 901.307C192.842 908.664 185.885 915.618 177.99 921.663C168.553 928.871 159.388 936.422 149.316 942.794C136.612 950.853 122.955 956.301 107.952 958.644C101.403 959.658 94.8699 960.42 88.3364 959.882C75.209 958.808 63.2158 954.495 52.7501 946.376C40.8477 937.153 32.3483 925.14 24.5142 912.663C21.1416 907.306 18.2831 901.62 13.8972 896.964C10.2675 893.113 6.15368 889.815 0.860352 888.338" stroke="#D3D3D3" stroke-width="1.5" stroke-linecap="round" stroke-linejoin="round" stroke-dasharray="4 8"/>
<path d="M695.587 1059.9C700.033 1058.69 703.769 1055.99 707.897 1054.1C716.473 1050.13 725.169 1046.65 734.409 1044.42C738.599 1043.43 742.138 1040.77 744.527 1037.29C752.074 1026.26 763.508 1025.22 775.456 1029.07C788.401 1033.23 799.639 1040.28 810.301 1048.42C815.443 1052.35 820.872 1055.72 827.315 1057.48C836.162 1059.92 845.403 1056.54 850.999 1049.22C855.309 1043.57 855.929 1037.59 853.767 1031.28C851.332 1024.14 849.985 1016.92 850.59 1009.41C851.105 1003.03 853.782 997.296 856.292 991.461C860.058 982.715 862.448 973.522 861.389 963.926C860.24 953.554 854.372 946.316 844.753 942.093C836.798 938.601 828.253 937.511 819.723 936.273C812.932 935.288 806.157 934.885 799.396 935.69C792.333 936.526 785.997 939.258 780.492 943.854C773.217 949.928 769.346 958.136 765.64 966.448C761.345 976.059 756.536 985.252 748.218 992.252C740.126 999.072 730.946 1002.88 720.254 1003.77C709.38 1004.68 699.292 1001.53 689.023 999.057C683.548 997.744 677.953 997.057 672.342 996.415C667.608 995.878 662.904 995.788 658.171 995.803C645.346 995.878 633.262 999.176 621.495 1004.01C611.937 1007.94 602.107 1011.31 592.065 1013.53C581.811 1015.79 571.98 1013.29 563.057 1007.64C555.889 1003.09 547.964 1000.33 539.479 1000.19C528.409 1000.01 518.775 1004.47 510.124 1010.91C504.649 1014.98 499.567 1019.62 495.59 1025.2C489.314 1034.04 488.603 1044.37 494.758 1053.17C497.45 1057.02 500.989 1058.95 505.36 1059.93" stroke="#C9C9C9" stroke-width="1.5" stroke-linecap="round" stroke-linejoin="round"/>
<path d="M1513 911.619C1508.22 917.185 1502.18 921.424 1495.51 923.99C1483.48 928.617 1473.16 935.392 1464.75 944.958C1458.26 952.346 1453.86 960.957 1450.17 969.986C1444.95 982.79 1440.27 995.848 1432.07 1007.25C1427.23 1013.98 1420.79 1017.67 1412.47 1018.77C1403.83 1019.92 1395.68 1017.79 1387.42 1016.17C1377.37 1014.2 1367.37 1012 1357.31 1010.01C1339.42 1006.47 1321.38 1005.47 1303.21 1005.86C1294.23 1006.06 1285.28 1005.55 1276.35 1004.98C1258.39 1003.8 1240.44 1002.16 1223.35 995.803C1213.98 992.326 1205.14 987.67 1195.43 984.939C1188.24 982.909 1181.12 981.044 1173.62 980.731C1166.72 980.447 1160.16 978.835 1153.61 976.567C1142.74 972.806 1131.82 974.388 1120.97 977.507C1102.54 982.805 1086.49 992.341 1071.64 1004.06C1068.98 1006.16 1066.22 1008.1 1063.26 1009.76C1056.05 1013.79 1048.94 1013.34 1042.24 1008.67C1034.92 1003.58 1028.73 997.117 1021.56 991.819C1011.72 984.536 1001.39 978.074 990.681 972.149C978.567 965.449 967.24 966.642 956.154 974.642C945.945 981.999 938.338 991.117 933.968 1002.95C931.759 1008.92 930.701 1015.1 930.565 1021.25C930.353 1031.44 928.689 1041.28 925.755 1050.99C924.893 1053.86 924.727 1056.95 924.243 1059.93" stroke="#5C5C5C" stroke-width="1.75" stroke-linecap="round" stroke-linejoin="round" stroke-dasharray="4 8"/>
<path d="M533.338 430.597C532.809 426.642 534.639 423.433 537.013 420.598C543.154 413.255 546.073 404.674 547.903 395.496C550.504 382.572 551.411 369.529 550.64 356.456C549.974 345.009 547.086 333.936 540.522 324.265C535.879 317.415 528.922 314.281 520.635 313.012C505.617 310.699 492.58 315.505 480.375 323.22C473.539 327.548 468.82 334.13 464.404 340.726C458.249 349.919 450.747 358.023 443.745 366.544C437.65 373.961 434.262 382.617 433.053 392.258C430.693 411.181 437.469 427.209 448.827 441.625C457.81 453.012 469.395 461.907 480.254 471.488C485.88 476.457 491.113 481.89 497.389 486.083C503.166 489.934 509.397 492.306 516.611 492.276C529.603 492.217 542.186 489.799 554.724 486.859C558.928 485.874 563.147 484.994 567.412 484.262C569.787 483.859 572.66 483.218 573.129 480.367C573.522 477.92 572.086 475.845 569.983 474.278C565.688 471.085 561.091 468.339 556.886 464.996C547.948 457.892 540.311 449.774 535.093 439.566C533.686 436.805 533.49 433.865 532.945 430.955" stroke="#404040" stroke-linecap="round" stroke-linejoin="round" stroke-dasharray="4 8"/>
<path d="M1430.24 135.106C1418.88 137.36 1408.93 151.03 1414.93 164.506C1419.5 174.729 1427.99 180.191 1437.86 184.161C1450.43 189.22 1463.54 192.906 1475.61 199.204C1490.96 207.218 1500.1 219.545 1503.26 236.454C1505.39 247.9 1505.31 259.421 1504.45 270.838C1503.35 285.538 1500.35 300.014 1496.04 314.221C1493.22 323.563 1487.86 330.861 1480.3 336.711C1473.75 341.785 1470.44 348.173 1469.68 356.44C1468.49 369.678 1468.46 382.96 1467.52 396.197C1467.02 403.271 1465.99 410.315 1464.89 417.359C1463.3 427.433 1464.43 437.387 1468.28 447.102C1472.39 457.534 1478.92 466.264 1486.14 474.651C1490.25 479.427 1494.2 484.352 1498.9 488.545C1501.11 490.515 1503.58 492.649 1507.22 490.814C1510 489.426 1512.18 487.739 1513 484.665" stroke="#D3D3D3" stroke-linecap="round" stroke-linejoin="round" stroke-dasharray="4 8"/>
<path d="M1233.15 135.466C1232.21 137.003 1232.39 138.883 1231.66 140.465C1228.52 147.39 1222.09 149.494 1215.36 151.255C1206.48 153.568 1197.48 155.374 1188.47 156.822C1179.5 158.269 1170.37 158.866 1161.28 159.583C1153.46 160.195 1145.72 159.642 1138.05 158.941C1118.51 157.15 1100.16 151.196 1082.8 142.032C1076.98 138.958 1070.29 137.824 1063.65 136.779C1051.16 134.839 1039.61 138.212 1028.08 141.958C1020.37 144.45 1012.51 145.897 1004.49 147.017C995.401 148.285 986.296 148.121 977.267 147.509C967.679 146.853 958.256 144.808 948.925 142.331C941.393 140.331 934.21 137.421 926.799 135.123C926.466 135.018 926.073 135.123 925.71 135.123" stroke="#404040" stroke-width="1.75" stroke-linecap="round" stroke-linejoin="round" stroke-dasharray="4 8"/>
<path d="M220.821 135.106C216.692 138.24 213.486 142.24 210.325 146.239C201.992 156.761 194.929 167.983 191.012 180.952C189.56 185.787 188.94 190.772 187.912 195.667C185.673 206.263 178.777 212.427 168.871 214.784C159.932 216.919 152.673 220.858 147.561 228.261C144.415 232.812 139.954 235.797 135.462 238.513C122.516 246.348 108.965 253.034 94.1592 256.914C85.9319 259.063 77.5532 260.361 69.099 260.749C56.6673 261.331 53.1436 256.317 49.9373 247.542C48.3644 243.229 47.5931 238.632 47.6687 233.961C47.7595 228.231 47.9107 222.485 47.6385 216.769C47.0789 204.83 43.3885 194.025 35.751 184.489C26.8885 173.416 15.2434 166.476 2.29741 161.298C1.63196 161.029 0.981342 161.014 0.860352 160.178" stroke="#282828" stroke-linecap="round" stroke-linejoin="round" stroke-dasharray="4 8"/>
<path d="M0.860472 221.068C4.68679 228.441 8.31682 235.902 11.4021 243.618C15.3191 253.393 22.5632 258.915 33.1348 260.93C42.2544 262.661 49.4986 267.615 54.2324 275.838C58.7997 283.763 60.9625 292.329 62.248 301.283C63.715 311.491 63.0799 321.386 59.2838 331.026C56.3649 338.414 51.6162 344.652 46.5951 350.74C39.7894 359.008 32.1214 366.664 27.0095 376.171C21.9733 385.573 19.5687 395.437 21.3835 406.257C22.1397 410.779 23.4858 415.226 23.7127 419.837C24.3781 433.97 17.1792 440.686 5.89681 444.82C4.29369 445.402 2.70593 446.402 0.845703 446.342" stroke="#EAEAEA" stroke-width="1.5" stroke-linecap="round" stroke-linejoin="round"/>
<path d="M189.242 1059.9C190.013 1054.57 192.04 1049.59 193.674 1044.53C197.999 1031.17 193.643 1024.5 184.947 1017.92C176.19 1011.28 166.436 1009.85 155.849 1010.06C138.411 1010.4 124.709 1018.41 112.701 1029.86C101.282 1040.74 88.1697 1048.51 72.7435 1052.38C60.3269 1055.5 47.8498 1056.44 34.9794 1055.42C23.319 1054.5 12.1425 1051.74 0.875244 1049.16" stroke="#8E8E8E" stroke-width="1.75" stroke-linecap="round" stroke-linejoin="round" stroke-dasharray="4 8"/>
<path d="M745.677 135.106C741.17 137.166 737.706 140.598 734.485 144.12C726.107 153.254 721.131 164.163 717.653 175.923C715.006 184.847 710.242 192.22 700.321 194.966C693.303 196.906 686.588 195.786 680.387 192.712C662.587 183.907 644.241 176.371 625.911 168.76C613.782 163.73 601.986 157.925 589.917 152.791C583.474 150.045 579.391 142.792 580.888 135.838" stroke="#D3D3D3" stroke-width="1.5" stroke-linecap="round" stroke-linejoin="round"/>
<path d="M113.382 337.831C108.512 338.353 104.776 341.144 101.041 343.92C90.8625 351.501 81.8789 360.127 75.9957 371.499C72.5172 378.2 70.6116 384.796 75.1941 391.974C77.9164 396.228 81.9242 398.705 86.2194 400.376C93.01 403.018 100.194 404.838 107.574 404.764C118.221 404.659 124.558 400.272 126.131 389.064C127.311 380.737 126.691 372.588 125.481 364.321C124.573 358.217 123.893 352.098 122.486 346.069C121.382 341.338 118.856 338.309 113.745 337.831" stroke="#5C5C5C" stroke-width="1.5" stroke-linecap="round" stroke-linejoin="round"/>
<path d="M1221.89 1059.9C1210.19 1059.41 1198.47 1059.24 1187.4 1054.57C1181.32 1052.01 1176.08 1048.29 1171.08 1044.14C1161.82 1036.46 1151.01 1033.46 1139.15 1034.56C1133.56 1035.08 1128.22 1037.2 1122.79 1038.68C1116.06 1040.51 1109.09 1041.02 1102.13 1041.74C1091.59 1042.83 1081.26 1045.22 1071.28 1048.81C1064.29 1051.32 1057.91 1055.13 1051.3 1058.45C1050.13 1059.04 1049 1059.69 1047.67 1059.89" stroke="#8E8E8E" stroke-linecap="round" stroke-linejoin="round" stroke-dasharray="4 8"/>
<path d="M495.953 657.318C504.135 656.766 511.092 653.781 516.672 647.662C523.176 640.558 524.976 631.47 521.058 621.829C516.763 611.234 508.49 605.383 497.737 603.383C487.181 601.414 478.772 605.995 472.344 614.323C469.047 618.591 466.84 623.292 466.598 628.664C466.295 635.141 469.577 640.409 473.524 645.08C478.107 650.498 483.809 654.587 490.856 656.676C492.459 657.154 494.123 656.423 495.59 657.318" stroke="#5C5C5C" stroke-linecap="round" stroke-linejoin="round" stroke-dasharray="4 8"/>
<path d="M379.076 135.106C383.537 138.688 387.984 142.374 393.247 144.732C399.342 147.448 405.694 149.105 412.439 149.955C420.561 150.97 428.44 149.493 436.425 149.209C441.038 149.045 445.636 148.717 450.203 148.284C463.436 147.031 476.912 147.613 489.782 143.374C496.452 141.18 502.819 138.36 509.019 135.121" stroke="#282828" stroke-width="1.75" stroke-linecap="round" stroke-linejoin="round" stroke-dasharray="4 8"/>
<path d="M618.637 135.106C620.346 136.047 620.286 137.987 621.148 139.42C623.764 143.792 627.817 146.613 632.097 149.03C645.028 156.298 658.912 161.178 673.476 163.984C677.333 164.73 681.28 165.864 685.439 165.252C690.279 164.551 693.379 161.88 695.995 158.044C701.198 150.448 706.612 142.971 711.936 135.45" stroke="#C9C9C9" stroke-width="1.5" stroke-linecap="round" stroke-linejoin="round"/>
<path d="M1513 632.963C1511.65 637.858 1508.1 641.425 1505.36 645.499C1501.84 650.752 1497.22 655.154 1492.94 659.751C1483.99 669.392 1483.4 680.017 1487.54 691.717C1492.91 706.835 1500.85 720.311 1512.62 731.46" stroke="#D3D3D3" stroke-width="1.5" stroke-linecap="round" stroke-linejoin="round"/>
<path d="M0.860352 486.83C3.20454 492.949 4.06659 499.247 4.2632 505.813C4.49006 513.752 5.83616 521.632 7.37879 529.452C8.77018 536.451 8.83067 543.495 8.13498 550.584C7.1973 560.046 3.85486 568.881 0.860352 577.805" stroke="#404040" stroke-width="1.5" stroke-linecap="round" stroke-linejoin="round" stroke-dasharray="4 8"/>
<path d="M1.22363 643.35C6.48671 646.633 11.311 650.439 15.7725 654.782C23.2285 662.02 26.3137 670.586 23.6368 680.585C21.338 689.211 19.0391 697.837 12.9745 705.075C9.60187 709.089 5.3978 711.537 1.22363 714.283" stroke="#404040" stroke-width="1.75" stroke-linecap="round" stroke-linejoin="round" stroke-dasharray="4 8"/>
<path d="M1286.87 135.106C1286.87 146.195 1291.16 151.971 1302.11 155.507C1305.89 156.731 1309.7 157.193 1313.73 156.656C1318.73 156 1323.72 155.492 1328.61 154.119C1337.77 151.552 1344.76 145.12 1344.93 135.106" stroke="#8E8E8E" stroke-width="1.75" stroke-linecap="round" stroke-linejoin="round" stroke-dasharray="4 8"/>
<path d="M53.1281 556.673C40.1822 561.269 34.5864 571.119 32.3481 583.879C30.3517 595.295 31.7433 605.742 39.0028 615.04C46.4285 624.561 60.3875 629.172 71.6396 624.71C80.2904 621.278 84.1471 614.025 86.098 605.727C88.3969 595.952 87.5349 586.207 83.1944 577.133C78.6421 567.627 72.0178 559.971 61.1287 557.031C58.5879 556.345 56.0319 556.912 53.5062 556.688" stroke="#5C5C5C" stroke-width="1.5" stroke-linecap="round" stroke-linejoin="round" stroke-dasharray="4 8"/>
<path d="M461.107 560.971C456.888 562 452.457 562.299 448.419 563.881C439.98 567.209 432.176 571.686 425.173 577.447C418.882 582.625 412.485 587.863 408.583 595.056C404.499 602.548 402.503 610.532 403.97 619.382C405.376 627.874 406.737 636.35 408.446 644.797C410.654 655.692 413.967 666.168 418.564 676.346C426.353 693.643 432.584 711.551 436.668 730.057C438.437 738.041 439.662 746.174 440.524 754.382C441.764 766.097 446.271 776.126 458.567 780.499C465.509 782.961 472.692 782.663 479.982 781.752C484.973 781.125 489.903 780.335 494.849 779.484C508.914 777.066 522.223 772.559 534.775 765.859C552.485 756.412 568.819 745.07 584.2 732.25C591.747 725.953 598.688 718.923 607.022 713.581C617.034 707.149 627.832 702.164 638.585 697.075C646.601 693.27 655.236 690.927 662.934 686.39C675.124 679.197 683.427 668.779 688.191 655.856C691.685 646.364 689.129 639.082 681.416 632.276C673.809 625.561 664.568 621.457 655.645 616.89C648.537 613.263 641.806 608.846 633.912 606.742C629.571 605.593 625.322 604.653 620.815 604.667C605.918 604.727 591.474 602.489 577.606 596.847C567.004 592.534 557.567 586.326 548.251 579.939C538.783 573.462 528.181 570.238 517.035 568.074C507.885 566.298 498.645 565.149 489.419 563.985C484.262 563.344 479.044 562.761 473.827 562.359C469.713 562.045 465.66 560.941 461.486 561.001" stroke="#C9C9C9" stroke-width="1.5" stroke-linecap="round" stroke-linejoin="round" stroke-dasharray="4 8"/>
<path d="M479.982 580.312C476.065 581.401 471.982 580.969 467.974 581.581C460.654 582.685 455.134 586.67 449.901 591.117C439.98 599.549 433.809 610.503 431.132 622.979C428.864 633.53 429.801 644.185 434.641 654.095C444.502 674.302 454.756 694.314 465.01 714.327C466.855 717.924 468.488 721.684 470.152 725.4C474.159 734.295 481.117 738.713 490.856 739.384C502.048 740.16 512.468 737.951 522.072 732.191C534.579 724.669 541.733 713.447 544.924 699.597C547.737 687.375 549.809 674.958 555.117 663.437C557.114 659.109 559.594 654.961 561.197 650.513C564.1 642.425 565.734 634.112 563.829 625.471C562.997 621.666 560.94 618.412 557.945 616.248C550.973 611.219 544.893 605.265 538.738 599.355C530.284 591.236 520.62 584.983 508.99 582.163C504.952 581.178 500.868 580.312 496.664 580.327C491.219 580.357 485.774 580.327 480.33 580.327" stroke="#282828" stroke-width="1.5" stroke-linecap="round" stroke-linejoin="round" stroke-dasharray="4 8"/>
<path d="M94.5076 707.82C90.5149 708.775 86.4917 709.611 82.5293 710.7C67.95 714.775 56.5319 723.251 48.486 735.802C43.8279 743.07 43.9336 750.084 49.1362 755.457C51.798 758.218 55.0194 760.277 58.6037 761.486C65.606 763.844 72.4569 766.605 79.9886 767.381C87.4749 768.157 94.1292 766.575 100.33 762.62C106.153 758.904 110.887 754.159 114.486 748.294C120.021 739.294 119.628 730.087 115.59 720.714C113.246 715.282 110.312 710.327 104.308 708.223C101.283 707.164 98.0314 708.044 94.8857 707.82" stroke="#404040" stroke-linecap="round" stroke-linejoin="round" stroke-dasharray="4 8"/>
<path d="M334.431 755.457C326.204 756.397 321.818 762.292 317.78 768.381C314.725 772.992 312.758 778.26 312.789 783.752C312.819 788.409 313.711 793.169 314.891 797.706C317.916 809.317 321.228 820.853 326.445 831.747C329.183 837.478 332.828 842.253 339.498 843.954C346.5 845.73 353.29 843.283 357.646 837.12C362.259 830.598 363.317 823.599 362.213 815.614C360.943 806.421 359.34 797.348 356.875 788.438C354.41 779.514 351.43 770.754 346.061 762.978C343.278 758.949 340.148 755.636 334.794 755.472" stroke="#C9C9C9" stroke-width="1.5" stroke-linecap="round" stroke-linejoin="round" stroke-dasharray="4 8"/>
<path d="M981.607 277.301C968.419 279.644 959.875 289.12 950.906 297.507C944.842 303.178 945.749 314.64 950.74 321.729C953.689 325.922 957.999 327.728 962.733 328.877C973.592 331.489 982.454 337.488 990.682 344.637C997.654 350.696 1002.95 358.307 1009.57 364.679C1014.74 369.634 1020.7 373.365 1027.67 375.499C1031.41 376.648 1035.02 376.737 1038.56 375.409C1048.09 371.827 1056.97 366.992 1064.27 359.963C1071.87 352.651 1077.13 343.935 1078.58 333.19C1079.69 324.967 1079.93 316.759 1077.64 308.865C1075.06 299.88 1068.43 294.239 1059.65 290.881C1052.27 288.061 1044.64 287.001 1036.78 286.493C1029.4 286.016 1021.97 286.001 1014.64 285.106C1008.17 284.315 1001.72 283.195 995.718 280.241C991.468 278.151 986.84 276.957 981.955 277.301" stroke="#5C5C5C" stroke-width="1.5" stroke-linecap="round" stroke-linejoin="round" stroke-dasharray="4 8"/>
<path d="M1044.04 466.414C1039.15 467.667 1034.1 467.011 1029.14 467.742C1020.25 469.07 1011.63 471.04 1003.39 474.637C997.079 477.383 991.226 481.069 984.178 482.308C978.189 483.352 972.427 483.845 966.347 483.039C961.19 482.352 955.972 481.8 950.77 481.352C944.705 480.83 938.625 480.144 932.591 479.547C926.284 478.905 920.205 476.756 913.732 477.114C905.898 477.547 902.661 482.263 902.102 488.635C901.542 494.978 903.433 500.992 905.157 506.872C910.904 526.542 920.114 544.659 932.727 560.911C939.079 569.089 946.868 576.044 955.05 582.565C961.326 587.565 967.482 592.728 973.652 597.862C978.568 601.951 984.33 603.548 990.697 604.04C998.818 604.682 1006.74 606.742 1014.67 608.592C1022.47 610.428 1030.35 611.89 1038.25 613.353C1046.44 614.875 1054.72 615.726 1062.96 616.77C1083.77 619.412 1103.64 616.741 1122.17 606.175C1130.97 601.16 1140.09 596.683 1149.68 593.116C1160.88 588.953 1170.11 582.073 1177.35 572.462C1183.9 563.776 1189.66 554.837 1192.21 544.122C1194.01 536.525 1193.45 528.959 1191.69 521.572C1190.04 514.692 1187.12 508.155 1183.83 501.843C1179.55 493.679 1172.5 488.77 1164.26 484.934C1153.07 479.726 1141.34 476.174 1129.35 473.682C1121.59 472.07 1113.68 470.98 1105.8 469.876C1085.43 466.996 1064.98 466.145 1044.45 466.384" stroke="#282828" stroke-width="1.5" stroke-linecap="round" stroke-linejoin="round" stroke-dasharray="4 8"/>
<path d="M831.701 196.712C828.102 197.189 824.487 197.458 821.16 199.189C812.933 203.457 808.456 209.785 808.396 219.276C808.335 231.275 813.689 240.408 822.627 247.93C827.058 251.661 831.837 254.72 837.479 256.601C854.78 262.346 868.679 250.482 870.947 235.409C872.732 223.544 867.424 214.993 858.969 207.412C853.358 202.368 846.885 199.278 839.671 197.458C837.191 196.831 834.62 196.697 832.049 196.712" stroke="#D3D3D3" stroke-width="1.5" stroke-linecap="round" stroke-linejoin="round" stroke-dasharray="4 8"/>
<path d="M799.396 165.551C796.613 166.268 793.679 166.641 791.078 167.76C782.367 171.476 777.981 178.52 775.742 187.385C772.612 199.801 772.43 212.412 773.035 224.992C773.398 232.663 776.226 239.976 779.811 246.826C786.843 260.272 792.757 274.256 796.613 288.806C799.971 301.491 807.865 307.61 820.055 310.326C826.377 311.729 832.547 313.818 838.96 314.863C848.337 316.37 857.653 317.37 866.576 312.445C871.642 309.655 875.242 305.431 878.841 301.253C888.974 289.448 897.368 276.345 906.896 264.093C913.263 255.9 921.142 249.184 930.02 243.573C937.385 238.916 943.994 233.2 948.517 225.694C955.685 213.784 952.509 200.398 941.348 192.727C935.041 188.399 927.857 186.624 920.613 184.922C913.233 183.191 905.595 183.594 898.124 182.654C888.067 181.385 878.1 179.475 868.345 176.669C858.349 173.789 848.397 170.655 838.219 168.446C825.545 165.7 812.675 165.119 799.759 165.551" stroke="#C9C9C9" stroke-width="1.5" stroke-linecap="round" stroke-linejoin="round"/>
</g>
<rect x="0.769287" width="1512" height="491" fill="url(#paint0_linear_397_95)"/>
<defs>
<linearGradient id="paint0_linear_397_95" x1="756.769" y1="491" x2="756.769" y2="-2.55338e-05" gradientUnits="userSpaceOnUse">
<stop stop-color="white" stop-opacity="0"/>
<stop offset="1" stop-color="white"/>
</linearGradient>
</defs>
</svg>
