<svg width="200" height="19" viewBox="0 0 200 19" fill="none" xmlns="http://www.w3.org/2000/svg">
<path d="M17.6161 6.55201C17.6161 7.752 17.4321 8.928 17.0641 10.08C16.7121 11.216 16.1921 12.28 15.5041 13.272C14.8321 14.248 14.0241 15.112 13.0801 15.864C12.1521 16.6 11.1121 17.184 9.9601 17.616C8.8081 18.032 7.5681 18.24 6.2401 18.24C6.0001 18.24 5.6801 18.232 5.2801 18.216C4.8801 18.2 4.4641 18.192 4.0321 18.192C3.6161 18.176 3.2321 18.168 2.8801 18.168C2.5121 18.168 2.1441 18.176 1.7761 18.192C1.4081 18.192 1.0721 18.2 0.7681 18.216C0.4641 18.216 0.2081 18.224 0.000100374 18.24L0.0721004 17.76C0.5841 17.728 0.9841 17.664 1.2721 17.568C1.5761 17.472 1.8161 17.28 1.9921 16.992C2.1681 16.704 2.3281 16.272 2.4721 15.696L5.6161 3.792C5.7601 3.264 5.8321 2.856 5.8321 2.568C5.8321 2.264 5.7121 2.056 5.4721 1.94401C5.2321 1.816 4.8161 1.744 4.2241 1.728L4.2961 1.24801C4.5201 1.26401 4.7921 1.28 5.1121 1.296C5.4321 1.312 5.7761 1.32 6.1441 1.32C6.5121 1.32 6.8721 1.32 7.2241 1.32C7.5921 1.304 8.0001 1.296 8.4481 1.296C8.8961 1.28 9.3281 1.27201 9.7441 1.27201C10.1761 1.25601 10.5441 1.24801 10.8481 1.24801C13.1201 1.24801 14.8161 1.70401 15.9361 2.616C17.0561 3.512 17.6161 4.824 17.6161 6.55201ZM5.9521 17.808C7.1841 17.808 8.2961 17.6 9.2881 17.184C10.2801 16.768 11.1521 16.184 11.9041 15.432C12.6561 14.68 13.2801 13.808 13.7761 12.816C14.2881 11.824 14.6721 10.744 14.9281 9.576C15.1841 8.408 15.3121 7.20001 15.3121 5.952C15.3121 4.52801 14.9121 3.464 14.1121 2.76C13.3121 2.04 12.0001 1.68 10.1761 1.68C9.6961 1.68 9.3121 1.736 9.0241 1.848C8.7361 1.96 8.5041 2.168 8.3281 2.47201C8.1521 2.76 7.9921 3.184 7.8481 3.744L4.7041 15.744C4.5761 16.208 4.5041 16.6 4.4881 16.92C4.4721 17.224 4.5681 17.448 4.7761 17.592C5.0001 17.736 5.3921 17.808 5.9521 17.808ZM20.7987 17.808C21.1827 17.808 21.6227 17.568 22.1187 17.088C22.6147 16.592 23.1187 15.928 23.6307 15.096C24.1427 14.264 24.6147 13.32 25.0467 12.264C25.4787 11.208 25.8227 10.112 26.0787 8.97601L25.6707 11.568C25.0627 13.264 24.4547 14.632 23.8467 15.672C23.2387 16.696 22.6227 17.44 21.9987 17.904C21.3747 18.352 20.7427 18.576 20.1027 18.576C19.3507 18.576 18.7827 18.304 18.3987 17.76C18.0307 17.216 17.8467 16.52 17.8467 15.672C17.8467 14.904 17.9747 14.072 18.2307 13.176C18.4867 12.264 18.8387 11.36 19.2867 10.464C19.7507 9.56801 20.2787 8.752 20.8707 8.016C21.4627 7.28 22.1027 6.688 22.7907 6.24001C23.4947 5.79201 24.2067 5.56801 24.9267 5.56801C25.4867 5.56801 25.9107 5.84801 26.1987 6.408C26.5027 6.952 26.5667 7.72001 26.3907 8.71201L26.1267 8.856C26.2387 8.008 26.1827 7.328 25.9587 6.81601C25.7347 6.28801 25.3667 6.02401 24.8547 6.02401C24.4387 6.02401 23.9987 6.23201 23.5347 6.64801C23.0867 7.048 22.6467 7.6 22.2147 8.304C21.7987 8.992 21.4147 9.76801 21.0627 10.632C20.7267 11.496 20.4547 12.392 20.2467 13.32C20.0547 14.232 19.9587 15.112 19.9587 15.96C19.9587 16.648 20.0307 17.128 20.1747 17.4C20.3347 17.672 20.5427 17.808 20.7987 17.808ZM26.8467 5.90401C27.2307 5.888 27.6147 5.856 27.9987 5.80801C28.3827 5.76 28.7347 5.68001 29.0547 5.56801L26.0547 16.176C26.0227 16.32 25.9747 16.512 25.9107 16.752C25.8627 16.976 25.8627 17.184 25.9107 17.376C25.9747 17.568 26.1427 17.664 26.4147 17.664C26.7347 17.664 27.0467 17.488 27.3507 17.136C27.6547 16.784 27.9587 16.144 28.2627 15.216L28.5507 14.328H29.0067L28.4067 16.08C28.1827 16.72 27.9107 17.224 27.5907 17.592C27.2867 17.944 26.9667 18.192 26.6307 18.336C26.2947 18.496 25.9667 18.576 25.6467 18.576C25.0227 18.576 24.5827 18.368 24.3267 17.952C24.1187 17.584 24.0627 17.16 24.1587 16.68C24.2547 16.184 24.3667 15.688 24.4947 15.192L26.8467 5.90401ZM32.6172 18.24H30.5292L33.4092 7.94401C33.4572 7.8 33.4972 7.616 33.5292 7.392C33.5772 7.15201 33.5772 6.93601 33.5292 6.744C33.4812 6.552 33.3292 6.456 33.0732 6.456C32.7212 6.456 32.4012 6.64 32.1132 7.008C31.8252 7.376 31.5212 8.008 31.2012 8.904L30.8892 9.792H30.4332L31.0332 8.04001C31.2732 7.36801 31.5532 6.85601 31.8732 6.504C32.2092 6.152 32.5532 5.912 32.9052 5.784C33.2732 5.64001 33.6172 5.56801 33.9372 5.56801C34.4172 5.56801 34.7612 5.68001 34.9692 5.90401C35.1772 6.112 35.2892 6.392 35.3052 6.744C35.3372 7.08 35.3132 7.44 35.2332 7.82401C35.1532 8.208 35.0652 8.576 34.9692 8.92801L32.6172 18.24ZM39.4092 8.352C39.5212 8.016 39.5932 7.696 39.6252 7.392C39.6732 7.08801 39.6492 6.84001 39.5532 6.64801C39.4732 6.44001 39.2812 6.336 38.9772 6.336C38.5292 6.336 38.0332 6.616 37.4892 7.176C36.9612 7.72001 36.4172 8.48801 35.8572 9.48001C35.3132 10.456 34.7852 11.6 34.2732 12.912C33.7612 14.208 33.3052 15.6 32.9052 17.088L33.6972 13.248C34.4332 11.328 35.1212 9.80801 35.7612 8.688C36.4012 7.568 37.0412 6.768 37.6812 6.288C38.3372 5.80801 39.0332 5.56801 39.7692 5.56801C40.2812 5.56801 40.6492 5.68801 40.8732 5.92801C41.1132 6.15201 41.2572 6.44801 41.3052 6.81601C41.3532 7.18401 41.3372 7.57601 41.2572 7.99201C41.1932 8.408 41.1132 8.80801 41.0172 9.19201L38.5692 18.24H36.4092L39.4092 8.352ZM45.4092 8.352C45.5692 7.856 45.6492 7.40001 45.6492 6.98401C45.6492 6.55201 45.4732 6.336 45.1212 6.336C44.6412 6.336 44.1372 6.616 43.6092 7.176C43.0812 7.736 42.5372 8.536 41.9772 9.576C41.4172 10.6 40.8572 11.808 40.2972 13.2C39.7532 14.576 39.2252 16.096 38.7132 17.76L39.2652 14.688C39.8892 13.024 40.4652 11.616 40.9932 10.464C41.5212 9.29601 42.0412 8.35201 42.5532 7.632C43.0652 6.912 43.5932 6.392 44.1372 6.072C44.6812 5.73601 45.2732 5.56801 45.9132 5.56801C46.5852 5.56801 47.0412 5.76001 47.2812 6.14401C47.5212 6.52801 47.6172 7.00001 47.5692 7.56C47.5372 8.10401 47.4332 8.64801 47.2572 9.19201L44.9292 16.2C44.7692 16.696 44.7132 17.072 44.7612 17.328C44.8092 17.568 44.9932 17.688 45.3132 17.688C45.6172 17.688 45.9132 17.52 46.2012 17.184C46.5052 16.848 46.8252 16.2 47.1612 15.24L47.4732 14.352H47.9292L47.3292 16.104C47.1052 16.776 46.8252 17.288 46.4892 17.64C46.1692 17.992 45.8252 18.232 45.4572 18.36C45.1052 18.504 44.7612 18.576 44.4252 18.576C44.0252 18.576 43.7052 18.512 43.4652 18.384C43.2412 18.272 43.0652 18.12 42.9372 17.928C42.7452 17.624 42.6812 17.248 42.7452 16.8C42.8092 16.336 42.9372 15.808 43.1292 15.216L45.4092 8.352ZM53.1755 1.536C53.2555 1.12 53.4635 0.760004 53.7995 0.456004C54.1515 0.152004 54.5275 4.29153e-06 54.9275 4.29153e-06C55.3435 4.29153e-06 55.6635 0.152004 55.8875 0.456004C56.1275 0.760004 56.2075 1.12 56.1275 1.536C56.0475 1.952 55.8315 2.31201 55.4795 2.616C55.1435 2.92 54.7675 3.072 54.3515 3.072C53.9515 3.072 53.6315 2.92 53.3915 2.616C53.1675 2.31201 53.0955 1.952 53.1755 1.536ZM52.4315 7.94401C52.7675 6.952 52.6555 6.456 52.0955 6.456C51.7275 6.456 51.3995 6.656 51.1115 7.05601C50.8235 7.45601 50.5195 8.07201 50.1995 8.904L49.8635 9.792H49.4075L50.0315 8.04001C50.2715 7.36801 50.5595 6.85601 50.8955 6.504C51.2315 6.152 51.5835 5.912 51.9515 5.784C52.3355 5.64001 52.6875 5.56801 53.0075 5.56801C53.5195 5.56801 53.8955 5.67201 54.1355 5.88C54.3755 6.088 54.5195 6.36 54.5675 6.696C54.6155 7.03201 54.5995 7.40001 54.5195 7.8C54.4395 8.18401 54.3355 8.56001 54.2075 8.92801L51.6395 16.2C51.4795 16.664 51.4235 17.032 51.4715 17.304C51.5355 17.56 51.7195 17.688 52.0235 17.688C52.3435 17.688 52.6475 17.512 52.9355 17.16C53.2235 16.808 53.5435 16.168 53.8955 15.24L54.2315 14.352H54.6875L54.0635 16.104C53.8395 16.728 53.5675 17.224 53.2475 17.592C52.9275 17.944 52.5835 18.192 52.2155 18.336C51.8475 18.496 51.4795 18.576 51.1115 18.576C50.4235 18.576 49.9595 18.416 49.7195 18.096C49.4795 17.776 49.3915 17.36 49.4555 16.848C49.5195 16.336 49.6555 15.792 49.8635 15.216L52.4315 7.94401ZM57.4177 12.792C58.3137 12.488 59.1217 12.192 59.8417 11.904C60.5777 11.6 61.1617 11.28 61.5937 10.944C62.1697 10.48 62.6257 9.92001 62.9617 9.26401C63.2977 8.60801 63.4657 7.88801 63.4657 7.10401C63.4657 6.64 63.4337 6.344 63.3697 6.216C63.3057 6.08801 63.2097 6.02401 63.0817 6.02401C62.6817 6.02401 62.2497 6.20001 61.7857 6.55201C61.3217 6.904 60.8657 7.392 60.4177 8.016C59.9697 8.62401 59.5537 9.32001 59.1697 10.104C58.8017 10.888 58.5057 11.728 58.2817 12.624C58.0577 13.504 57.9457 14.384 57.9457 15.264C57.9457 16.08 58.0977 16.672 58.4017 17.04C58.7057 17.392 59.1057 17.568 59.6017 17.568C60.1777 17.568 60.7857 17.392 61.4257 17.04C62.0657 16.688 62.6897 16.064 63.2977 15.168L63.6817 15.36C63.3777 15.888 62.9777 16.4 62.4817 16.896C61.9857 17.392 61.4257 17.8 60.8017 18.12C60.1937 18.424 59.5457 18.576 58.8577 18.576C58.2177 18.576 57.6577 18.448 57.1777 18.192C56.6977 17.936 56.3297 17.56 56.0737 17.064C55.8177 16.552 55.6897 15.928 55.6897 15.192C55.6897 14.504 55.8177 13.736 56.0737 12.888C56.3297 12.024 56.6897 11.168 57.1537 10.32C57.6337 9.45601 58.2017 8.66401 58.8577 7.94401C59.5137 7.224 60.2417 6.648 61.0417 6.216C61.8417 5.78401 62.6977 5.56801 63.6097 5.56801C64.1057 5.56801 64.5217 5.70401 64.8577 5.976C65.2097 6.232 65.3857 6.624 65.3857 7.15201C65.3857 7.79201 65.1937 8.392 64.8097 8.952C64.4417 9.49601 63.9457 10 63.3217 10.464C62.7137 10.912 62.0497 11.312 61.3297 11.664C60.6097 12.016 59.9057 12.32 59.2177 12.576C58.5297 12.832 57.9217 13.04 57.3937 13.2L57.4177 12.792ZM68.1387 18.24H66.0507L68.9307 7.94401C68.9947 7.75201 69.0427 7.54401 69.0747 7.32001C69.1227 7.08 69.1147 6.88 69.0507 6.72001C68.9867 6.544 68.8267 6.456 68.5707 6.456C68.2187 6.456 67.9067 6.632 67.6347 6.98401C67.3627 7.32001 67.0587 7.96001 66.7227 8.904L66.4107 9.792H65.9547L66.5547 8.04001C66.9067 7.032 67.3387 6.368 67.8507 6.04801C68.3787 5.72801 68.8987 5.56801 69.4107 5.56801C69.8907 5.56801 70.2347 5.67201 70.4427 5.88C70.6667 6.088 70.7867 6.36 70.8027 6.696C70.8347 7.016 70.8107 7.376 70.7307 7.77601C70.6667 8.16 70.5867 8.544 70.4907 8.92801L68.1387 18.24ZM69.2427 13.248C69.8027 11.808 70.3467 10.6 70.8747 9.624C71.4027 8.64801 71.9227 7.86401 72.4347 7.27201C72.9467 6.664 73.4667 6.232 73.9947 5.976C74.5387 5.70401 75.0987 5.56801 75.6747 5.56801C76.4267 5.56801 76.9387 5.75201 77.2107 6.12001C77.4987 6.47201 77.6267 6.92801 77.5947 7.48801C77.5627 8.032 77.4507 8.6 77.2587 9.19201L74.9307 16.2C74.7867 16.632 74.7227 16.992 74.7387 17.28C74.7707 17.552 74.9627 17.688 75.3147 17.688C75.6187 17.688 75.9147 17.52 76.2027 17.184C76.5067 16.848 76.8267 16.2 77.1627 15.24L77.4747 14.352H77.9307L77.3307 16.104C77.1067 16.776 76.8267 17.288 76.4907 17.64C76.1707 17.992 75.8267 18.232 75.4587 18.36C75.1067 18.504 74.7627 18.576 74.4267 18.576C74.0427 18.576 73.7227 18.512 73.4667 18.384C73.2267 18.256 73.0427 18.088 72.9147 17.88C72.7387 17.592 72.6827 17.216 72.7467 16.752C72.8107 16.288 72.9387 15.776 73.1307 15.216L75.4107 8.352C75.4907 8.128 75.5547 7.864 75.6027 7.56C75.6667 7.24 75.6587 6.96 75.5787 6.72001C75.4987 6.464 75.2667 6.336 74.8827 6.336C74.4987 6.336 74.0907 6.504 73.6587 6.84C73.2267 7.176 72.7787 7.656 72.3147 8.28C71.8507 8.88801 71.3947 9.62401 70.9467 10.488C70.4987 11.336 70.0667 12.28 69.6507 13.32C69.2507 14.344 68.8827 15.44 68.5467 16.608L69.2427 13.248ZM85.8772 18.24V0.360004H91.7092C93.5972 0.360004 95.2372 0.744004 96.6292 1.512C98.0372 2.264 99.1252 3.312 99.8932 4.656C100.661 5.984 101.045 7.52801 101.045 9.288C101.045 11.032 100.661 12.584 99.8932 13.944C99.1252 15.288 98.0372 16.344 96.6292 17.112C95.2372 17.864 93.5972 18.24 91.7092 18.24H85.8772ZM89.1412 15.36H91.7812C92.9972 15.36 94.0452 15.112 94.9252 14.616C95.8212 14.104 96.5172 13.4 97.0132 12.504C97.5092 11.592 97.7572 10.52 97.7572 9.288C97.7572 8.04 97.5092 6.968 97.0132 6.072C96.5172 5.176 95.8212 4.48 94.9252 3.984C94.0452 3.48801 92.9972 3.24001 91.7812 3.24001H89.1412V15.36ZM110.051 18.528C108.675 18.528 107.451 18.24 106.379 17.664C105.323 17.088 104.491 16.296 103.883 15.288C103.275 14.28 102.971 13.136 102.971 11.856V0.360004H106.235V11.688C106.235 12.424 106.395 13.088 106.715 13.68C107.051 14.272 107.507 14.736 108.083 15.072C108.659 15.392 109.315 15.552 110.051 15.552C110.803 15.552 111.459 15.392 112.019 15.072C112.595 14.736 113.043 14.272 113.363 13.68C113.699 13.088 113.867 12.424 113.867 11.688V0.360004H117.131V11.856C117.131 13.136 116.827 14.28 116.219 15.288C115.611 16.296 114.771 17.088 113.699 17.664C112.643 18.24 111.427 18.528 110.051 18.528ZM119.909 18.24V0.360004H123.173V8.16001H130.781V0.360004H134.069V18.24H130.781V11.04H123.173V18.24H119.909ZM135.567 18.24L141.735 0.360004H145.959L152.127 18.24H148.575L147.303 14.4H140.391L139.095 18.24H135.567ZM141.327 11.52H146.367L143.391 2.616H144.303L141.327 11.52ZM153.637 18.24V0.360004H156.757L163.453 9.456H161.965L168.517 0.360004H171.637V18.24H168.349V4.08L169.621 4.392L162.829 13.44H162.445L155.821 4.392L156.901 4.08V18.24H153.637ZM174.579 18.24V0.360004H186.459V3.24001H177.843V7.82401H185.979V10.704H177.843V15.36H186.459V18.24H174.579ZM188.372 18.24V0.360004H191.636V15.36H199.292V18.24H188.372Z" fill="white"/>
</svg>
