<svg width="339" height="30" viewBox="0 0 339 30" fill="none" xmlns="http://www.w3.org/2000/svg">
<path d="M172.651 24.0131H165.578V23.6912L166.285 23.6268C166.735 23.5624 166.928 23.498 166.928 22.9186V14.0989C166.928 13.262 166.478 12.6826 165.578 12.6826C164.484 12.6826 163.584 13.5839 163.584 14.4852V22.7255C163.584 23.4337 163.777 23.498 164.291 23.5624L164.934 23.6268V23.9487H157.99V23.6268L158.633 23.498C158.954 23.4337 159.212 23.4337 159.212 22.7255V13.9058C159.212 12.6826 158.954 12.2963 157.733 12.1032V11.7813L163.52 10.365V12.6826C164.613 11.6525 165.963 10.365 167.892 10.365C170.272 10.365 171.365 11.8457 171.365 13.7126V22.7255C171.365 23.3693 171.622 23.4337 172.072 23.498L172.715 23.5624L172.651 24.0131Z" fill="white"/>
<path d="M156.254 7.2747C156.254 8.49788 155.225 9.52792 153.875 9.52792C152.524 9.52792 151.56 8.56226 151.56 7.2747C151.56 6.05153 152.524 5.02148 153.875 5.02148C155.289 5.02148 156.254 5.98715 156.254 7.2747Z" fill="white"/>
<path d="M157.476 24.0129H150.467V23.691C150.66 23.6266 151.11 23.6266 151.11 23.6266C151.56 23.5622 151.817 23.4979 151.817 22.8541V13.97C151.817 12.7468 151.56 12.2962 150.338 12.1674V11.8455L156.19 10.4292V22.661C156.19 23.4335 156.383 23.4979 157.026 23.6266L157.54 23.691L157.476 24.0129Z" fill="white"/>
<path d="M149.952 24.0129H142.879V23.691L143.586 23.6266C144.037 23.5623 144.229 23.3691 144.229 22.8541V14.1631C144.229 13.1331 143.715 12.6824 142.879 12.6824C141.85 12.6824 140.886 13.5837 140.886 14.4206V22.7897C140.886 23.4979 141.143 23.5623 141.593 23.6266L142.236 23.691V24.0129H135.163V23.691L135.935 23.5623C136.32 23.4979 136.449 23.3047 136.449 22.9829V7.78972C136.449 6.24466 135.999 6.1159 134.97 5.92277V5.60088L140.821 4.18457V12.7468C141.722 11.6524 143.458 10.4292 145.13 10.4292C147.059 10.4292 148.602 11.5236 148.602 13.7768V22.7897C148.602 23.4979 148.859 23.4979 149.374 23.5623L149.952 23.6266V24.0129Z" fill="white"/>
<path d="M134.648 20.9228C133.748 22.3391 131.755 24.4636 128.154 24.4636C121.916 24.4636 118.573 20.7941 118.573 15.1288C118.573 8.17605 123.138 5.27905 128.089 5.27905C130.597 5.27905 131.948 6.11596 132.912 6.11596C133.234 6.11596 133.684 6.05158 134.005 5.92283L134.07 10.4293H133.491L131.755 7.21038C131.047 6.63098 130.019 6.3091 128.347 6.3091C125.26 6.3091 123.46 9.78549 123.46 14.4207C123.46 19.6997 125.903 22.5966 128.99 22.5966C132.333 22.5966 133.491 21.2447 134.198 20.4722L134.648 20.9228Z" fill="white"/>
<path d="M114.586 24.0129H107.513V23.691L108.22 23.6266C108.67 23.5623 108.863 23.3691 108.863 22.8541V14.1631C108.863 13.1331 108.349 12.6824 107.513 12.6824C106.484 12.6824 105.519 13.5837 105.519 14.4206V22.7897C105.519 23.4979 105.777 23.5623 106.227 23.6266L106.87 23.691V24.0129H99.7966V23.691L100.632 23.5623C101.018 23.4979 101.147 23.3047 101.147 22.9829V7.78972C101.147 6.24466 100.697 6.1159 99.668 5.92277V5.60088L105.519 4.18457V12.7468C106.42 11.6524 108.156 10.4292 109.828 10.4292C111.757 10.4292 113.3 11.5236 113.3 13.7768V22.7897C113.3 23.4979 113.557 23.4979 114.072 23.5623L114.65 23.6266L114.586 24.0129Z" fill="white"/>
<path d="M100.568 21.7597C99.8609 22.9828 98.2534 24.2704 95.8099 24.2704C93.4308 24.2704 92.2733 22.6609 92.2733 20.9871V11.9742H90.6658V11.6524L96.3886 7.08154H96.7102V10.8798H99.9896L99.6037 11.9742H96.7102V20.6009C96.7102 21.7597 97.3532 22.2747 98.1891 22.2747C98.9607 22.2747 99.7967 21.7597 100.375 21.309L100.568 21.7597Z" fill="white"/>
<path d="M90.9874 23.6267L85.3288 24.1417V21.9529C84.4286 22.9829 82.6924 24.2705 80.9563 24.2705C78.7057 24.2705 77.5483 22.7898 77.5483 20.8585V13.7769C77.5483 12.5538 77.0982 12.1675 76.0693 12.0387V11.7168L81.9208 10.3005V20.1503C81.9208 21.1804 82.3066 21.7598 83.2712 21.7598C83.9142 21.7598 84.1714 21.631 84.6215 21.3735C85.2002 20.9872 85.2645 20.7297 85.2645 20.0216V13.7769C85.2645 12.5538 84.8787 12.2319 83.7856 12.0387V11.7168L89.637 10.3005V22.146C89.637 23.0473 90.3444 23.1117 90.9874 23.2405V23.6267Z" fill="white"/>
<path d="M62.0513 18.0902C62.0513 21.8885 58.9649 24.3348 54.6566 24.3348C52.4061 24.3348 50.2841 23.6911 49.1267 22.8542V18.6696H49.6411L51.2486 22.146C52.2131 22.7254 53.1777 23.3048 54.8495 23.3048C57.1001 23.3048 58.3218 21.8241 58.3218 20.1503C58.3218 18.6052 57.1644 17.4464 54.3994 16.5451C50.9271 15.4507 48.998 13.9057 48.998 10.8799C48.998 7.66103 52.2131 5.27905 55.8141 5.27905C58.0646 5.27905 59.6722 6.24472 60.1866 6.24472C60.3795 6.24472 60.701 6.18034 60.8939 6.18034V10.3649H60.3795L58.6433 7.27476C58.1289 6.69536 56.7143 6.43785 55.6212 6.43785C53.6921 6.43785 52.2775 7.53227 52.2775 9.07734C52.2775 10.6224 53.3063 11.3949 56.5214 12.425C60.3152 13.6482 62.0513 15.1288 62.0513 18.0902Z" fill="white"/>
<path d="M186.604 22.468C186.283 23.0474 184.997 24.2706 183.068 24.2706C181.139 24.2706 180.431 23.2405 180.238 22.0817C179.467 23.2405 178.438 24.2706 176.187 24.2706C173.872 24.2706 172.586 22.9186 172.586 20.9873C172.586 18.9916 173.744 17.8972 176.766 16.7384C178.759 15.9658 180.11 15.7083 180.11 13.5839C180.11 11.7813 179.402 11.1375 178.502 11.1375C177.28 11.1375 176.573 11.9101 176.445 12.1032C176.637 12.2319 177.473 12.5538 177.473 13.7126C177.473 14.8714 176.509 15.5796 175.351 15.5796C174.13 15.5796 173.551 14.6139 173.551 13.5839C173.551 11.7813 175.994 10.365 179.724 10.365C182.875 10.365 184.418 11.8457 184.418 14.4208V21.3092C184.418 22.3392 184.547 22.7899 185.19 22.7899C185.575 22.7899 185.961 22.5324 186.283 22.2105L186.604 22.468ZM180.11 20.5367V15.9658C178.888 17.4465 176.895 17.5109 176.895 20.5367C176.895 21.6311 177.409 22.4036 178.374 22.4036C179.274 22.4036 180.11 21.3092 180.11 20.5367Z" fill="white"/>
<path d="M76.0693 17.3822C76.0693 21.438 73.1757 24.2706 69.5105 24.2706C65.8452 24.2706 62.9517 21.438 62.9517 17.3178C62.9517 13.262 65.9095 10.365 69.5105 10.365C73.1757 10.4294 76.0693 13.262 76.0693 17.3822ZM71.6324 17.3822C71.6324 12.6826 71.1823 11.0731 69.5748 11.0731C67.9029 11.0731 67.5171 12.6826 67.5171 17.3178C67.5171 21.6955 67.9029 23.5624 69.5748 23.5624C71.1823 23.6268 71.6324 21.7598 71.6324 17.3822Z" fill="white"/>
<path d="M339 21.7597C338.293 22.9828 336.749 24.3348 334.242 24.3348C331.862 24.3348 330.705 22.7253 330.705 21.0515V11.9742H329.097V11.6524L334.82 7.08154H335.142V10.8798H338.421L338.035 11.9742H335.142V20.6652C335.142 21.824 335.785 22.2747 336.621 22.2747C337.392 22.2747 338.035 21.824 338.678 21.309L339 21.7597Z" fill="white"/>
<path d="M329.097 19.5708C329.097 22.4678 326.525 24.2704 323.31 24.2704C320.481 24.2704 319.324 23.4979 318.745 23.2404V19.764H319.066L320.61 22.661C321.253 23.1116 322.41 23.4979 323.375 23.4979C324.918 23.4979 325.947 22.7253 325.947 21.4378C325.947 20.0215 324.21 19.5708 322.41 18.9914C320.417 18.2833 318.616 17.1889 318.616 14.8713C318.616 12.0386 321.124 10.4292 323.953 10.4292C326.332 10.4292 327.426 11.3305 328.069 11.1374V14.485H327.747L326.204 11.9743C325.689 11.588 324.853 11.2661 323.953 11.2661C322.153 11.2661 321.317 11.9099 321.317 13.0043C321.317 14.2275 322.989 14.6781 324.854 15.3863C327.168 16.0944 329.097 16.9957 329.097 19.5708Z" fill="white"/>
<path d="M272.576 24.0129H265.503V23.691L266.146 23.6266C266.596 23.5622 266.789 23.4979 266.789 22.9185V14.0987C266.789 13.2618 266.339 12.5537 265.439 12.5537C264.281 12.5537 263.381 13.5193 263.381 14.485V22.7253C263.381 23.4335 263.574 23.4979 264.088 23.5622L264.732 23.6266V23.9485H257.851V23.6266L258.494 23.4979C258.816 23.4335 259.073 23.4335 259.073 22.7253V13.97C259.073 12.7468 258.816 12.3605 257.594 12.1674V11.8455L263.381 10.4292V12.7468C264.474 11.7168 265.825 10.4292 267.754 10.4292C270.133 10.4292 271.226 11.8455 271.226 13.7768V22.7897C271.226 23.4335 271.483 23.4979 271.933 23.5622L272.512 23.6266V24.0129H272.576Z" fill="white"/>
<path d="M256.243 7.2747C256.243 8.49788 255.215 9.52792 253.864 9.52792C252.514 9.52792 251.549 8.56226 251.549 7.2747C251.549 6.05153 252.514 5.02148 253.864 5.02148C255.215 5.02148 256.243 6.05153 256.243 7.2747Z" fill="white"/>
<path d="M257.465 24.0129H250.456V23.691C250.713 23.6266 251.099 23.6266 251.099 23.6266C251.549 23.5622 251.807 23.4979 251.807 22.8541V13.97C251.807 12.7468 251.485 12.2962 250.328 12.1674V11.8455L256.179 10.4292V22.661C256.179 23.4979 256.372 23.5622 257.015 23.6266L257.529 23.691L257.465 24.0129Z" fill="white"/>
<path d="M250.07 24.0129H242.997V23.691L243.64 23.6266C244.09 23.5622 244.283 23.4979 244.283 22.9185V14.0987C244.283 13.2618 243.833 12.6824 242.933 12.6824C241.84 12.6824 240.875 13.5837 240.875 14.485V22.7253C240.875 23.4335 241.068 23.4979 241.583 23.5622L242.226 23.6266V23.9485H235.345V23.6266L235.988 23.4979C236.31 23.4335 236.567 23.4335 236.567 22.7253V13.97C236.567 12.7468 236.31 12.2962 235.088 12.1674V11.8455L240.875 10.4292V12.7468C241.968 11.7168 243.319 10.4292 245.248 10.4292C247.627 10.4292 248.72 11.8455 248.72 13.7768V22.7897C248.72 23.4335 248.977 23.4979 249.427 23.5622L250.07 23.6266V24.0129Z" fill="white"/>
<path d="M235.281 12.2962C235.281 13.5193 234.574 14.3562 233.288 14.3562C232.387 14.3562 231.744 13.7768 231.744 13.0043C231.744 12.7468 231.809 12.4249 232.002 12.1674C231.358 12.1674 229.88 13.1974 229.88 14.2919V22.7897C229.88 23.4335 230.137 23.5622 230.651 23.6266L231.358 23.691V24.0129H224.157V23.691L224.735 23.6266C225.314 23.5622 225.507 23.4979 225.507 22.7253V13.8412C225.507 12.618 225.057 12.2962 224.028 12.1674V11.8455L229.815 10.4292V12.5537C230.78 11.2661 232.13 10.4292 233.352 10.4292C234.509 10.4292 235.281 11.1374 235.281 12.2962Z" fill="white"/>
<path d="M211.361 24.0129H202.68V23.691L203.709 23.5623C204.48 23.4979 204.673 23.3691 204.673 22.5322C204.673 22.4035 204.673 22.2747 204.673 22.2103L204.352 9.59232H204.287L199.015 24.2061H198.179L193.035 9.72108H192.97L192.777 21.1159C192.777 21.3734 192.777 21.6309 192.777 21.8241C192.777 23.3691 193.163 23.5623 194.385 23.7554V24.0773H189.691V23.7554C190.913 23.4979 191.556 22.9829 191.556 21.1159L191.941 8.24039C191.941 8.04726 191.941 7.9185 191.941 7.72537C191.941 6.95284 191.684 6.24468 190.72 6.1803C190.72 6.1803 190.205 6.11593 189.884 6.11593V5.66528H196.378L200.236 17.3176H200.301L204.545 5.66528H210.268V5.98717C209.239 6.05155 208.724 6.37344 208.724 7.08159C208.724 7.27473 208.724 7.9185 208.724 8.17601L209.239 22.4679C209.239 23.2404 209.56 23.4979 210.332 23.5623L211.361 23.691V24.0129Z" fill="white"/>
<path d="M317.587 17.3822C317.587 21.438 314.629 24.2706 311.029 24.2706C307.363 24.2706 304.47 21.438 304.47 17.3178C304.47 13.262 307.428 10.365 311.029 10.365C314.694 10.4294 317.587 13.3264 317.587 17.3822ZM313.086 17.3822C313.086 12.6826 312.636 11.0731 311.029 11.0731C309.357 11.0731 308.971 12.6826 308.971 17.3178C308.971 21.6955 309.357 23.5624 311.029 23.5624C312.7 23.6268 313.086 21.7598 313.086 17.3822Z" fill="white"/>
<path d="M305.499 10.6867C305.499 14.0344 302.348 15.9013 298.168 15.9013C297.525 15.9013 297.204 15.9013 296.432 15.837V22.5322C296.432 23.1116 296.689 23.4335 297.782 23.5623L298.554 23.6267V24.0129H289.938V23.6267L291.031 23.4979C291.738 23.4335 291.931 23.2404 291.931 22.5966V7.53224C291.931 6.43782 291.352 6.24468 289.938 6.05155V5.66528H297.397C302.605 5.66528 305.499 6.88846 305.499 10.6867ZM300.74 10.6224C300.74 7.59661 299.647 6.37344 297.589 6.37344C297.075 6.37344 296.689 6.43782 296.368 6.50219V15.0644C296.561 15.0644 296.754 15.1288 297.525 15.1288C299.647 15.1932 300.74 13.97 300.74 10.6224Z" fill="white"/>
<path d="M286.208 10.7513L285.372 12.3607L283.186 12.2319C283.893 12.8757 284.472 13.777 284.472 15.1289C284.472 17.9616 281.836 19.8929 278.621 19.8929C277.849 19.8929 277.013 19.7641 276.37 19.6354C276.241 19.8285 276.177 20.086 276.177 20.3435C276.177 20.6654 276.82 20.9229 277.527 21.0517L281.321 21.7598C284.665 22.4036 286.08 23.3049 286.08 25.4294C286.08 28.1976 282.414 29.9358 278.492 29.9358C274.891 29.9358 271.74 29.292 271.74 27.2963C271.74 25.6225 273.541 24.9143 275.084 24.5281C273.862 24.0131 273.476 22.983 273.476 22.2749C273.476 20.8586 274.57 20.1504 275.663 19.3779C273.862 18.6053 272.833 17.1246 272.833 15.1933C272.833 12.3607 275.47 10.365 278.685 10.365C279.971 10.365 280.743 10.6225 281.321 10.88L286.208 10.7513ZM280.164 15.1933C280.164 12.1676 279.714 11.0731 278.556 11.0731C277.335 11.0731 277.013 12.1676 277.013 15.1933C277.013 18.1547 277.399 19.1847 278.556 19.1847C279.714 19.1847 280.164 18.1547 280.164 15.1933ZM282.479 27.2319C282.479 26.2663 281.707 25.9444 279.585 25.5581L275.984 24.85C275.405 25.365 274.762 25.7513 274.762 27.1032C274.762 28.4551 276.241 29.292 278.556 29.292C281.064 29.292 282.479 28.262 282.479 27.2319Z" fill="white"/>
<path d="M223.835 17.3822C223.835 21.438 220.877 24.2706 217.276 24.2706C213.611 24.2706 210.718 21.438 210.718 17.3178C210.718 13.262 213.675 10.365 217.276 10.365C220.877 10.4294 223.835 13.3264 223.835 17.3822ZM219.334 17.3822C219.334 12.6826 218.884 11.0731 217.276 11.0731C215.604 11.0731 215.219 12.6826 215.219 17.3178C215.219 21.6955 215.604 23.5624 217.276 23.5624C218.884 23.6268 219.334 21.7598 219.334 17.3822Z" fill="white"/>
<path d="M33.7586 3.21899H20.0623V25.3649H33.7586V3.21899Z" fill="#001246"/>
<path d="M16.9114 3.21899H3.21509V25.3649H16.9114V3.21899Z" fill="#FFCB05"/>
</svg>
